<?xml version="1.0" encoding="UTF-8" standalone="no"?>
<!-- Created with Inkscape (http://www.inkscape.org/) -->

<svg
   xmlns:dc="http://purl.org/dc/elements/1.1/"
   xmlns:cc="http://creativecommons.org/ns#"
   xmlns:rdf="http://www.w3.org/1999/02/22-rdf-syntax-ns#"
   xmlns:svg="http://www.w3.org/2000/svg"
   xmlns="http://www.w3.org/2000/svg"
   xmlns:sodipodi="http://sodipodi.sourceforge.net/DTD/sodipodi-0.dtd"
   xmlns:inkscape="http://www.inkscape.org/namespaces/inkscape"
   width="293.45709"
   height="145.62259"
   id="svg4613"
   version="1.1"
   inkscape:version="0.48.5 r10040"
   sodipodi:docname="TED.svg">
  <defs
     id="defs4615" />
  <sodipodi:namedview
     id="base"
     pagecolor="#000"
     bordercolor="#666666"
     borderopacity="1.0"
     inkscape:pageopacity="0.0"
     inkscape:pageshadow="2"
     inkscape:zoom="1.4"
     inkscape:cx="137.99746"
     inkscape:cy="63.524447"
     inkscape:document-units="px"
     inkscape:current-layer="layer1"
     showgrid="false"
     inkscape:window-width="1366"
     inkscape:window-height="712"
     inkscape:window-x="0"
     inkscape:window-y="34"
     inkscape:window-maximized="1"
     fit-margin-top="0"
     fit-margin-left="0"
     fit-margin-right="0"
     fit-margin-bottom="0" />
  <metadata
     id="metadata4618">
    <rdf:RDF>
      <cc:Work
         rdf:about="">
        <dc:format>image/svg+xml</dc:format>
        <dc:type
           rdf:resource="http://purl.org/dc/dcmitype/StillImage" />
        <dc:title />
      </cc:Work>
    </rdf:RDF>
  </metadata>
  <g
     inkscape:label="Capa 1"
     inkscape:groupmode="layer"
     id="layer1"
     transform="translate(-39.625115,-841.17037)">
    <g
       transform="translate(8.369967,811.11372)"
       style="font-size:128.09225464px;font-style:normal;font-variant:normal;font-weight:normal;font-stretch:normal;text-align:start;line-height:125%;letter-spacing:0px;word-spacing:0px;writing-mode:lr-tb;text-anchor:start;fill:#fd2c05;fill-opacity:1;stroke:none;font-family:Arial Black;-inkscape-font-specification:'Arial Black,'"
       id="text3013-9">
      <path
         d="m 31.255228,30.197276 92.748682,0 -0.004,28.743847 -30.004001,0.0221 0.0221,78.063577 -34.01898,0 0.0098,-78.051337 -28.753681,0.02329 0,-28.801473"
         id="path3018-5"
         inkscape:connector-curvature="0"
         sodipodi:nodetypes="ccccccccc"
         style="fill:#fd2c05;fill-opacity:1" />
      <path
         d="m 128.08017,30.197276 89.92828,0 0,28.600815 -57.03323,0.1875 0,12.0423 57.00353,0.226714 -0.0221,25.708897 -56.98143,0.05653 0,11.887948 57.03628,0.0625 -0.0221,28.04283 -89.90923,0 0,-106.816038"
         id="path3020-1"
         inkscape:connector-curvature="0"
         sodipodi:nodetypes="ccccccccccccc"
         style="fill:#fd2c05;fill-opacity:1" />
      <path
         d="m 222.00285,30.056651 53.44397,0.140625 c 9.65736,1.06e-4 17.44638,1.31041 23.3671,3.930914 5.96907,2.620711 10.89484,6.381767 14.77733,11.283181 3.88228,4.901598 6.697,10.603845 8.44419,17.106759 1.74696,6.503063 2.62049,13.39429 2.62061,20.6737 -1.2e-4,11.404548 -1.31042,20.26123 -3.93093,26.57007 -2.57217,6.26037 -6.16337,11.52585 -10.77361,15.79646 -4.61043,4.22209 -9.56046,7.03682 -14.85012,8.44418 -7.23101,1.9412 -17.03253,2.91179 -22.90457,2.91179 l -50.17835,0 m 34.16351,-27.68779 8.08022,0 c 6.89117,0 11.79267,-0.75218 14.70452,-2.25664 2.91173,-1.55292 5.19262,-4.22206 6.84271,-8.007406 1.64993,-3.833821 2.47495,-6.574219 2.47502,-15.11551 -7e-5,-11.307383 -1.66743,-14.716851 -5.35562,-18.890487 -3.68833,-4.173484 -9.80309,-6.260346 -18.34426,-6.260346 l -8.22581,0"
         id="path3022-1"
         inkscape:connector-curvature="0"
         sodipodi:nodetypes="cccccccccsccsccccsc"
         style="fill:#fd2c05;fill-opacity:1" />
    </g>
    <text
       xml:space="preserve"
       style="font-size:21.90546799px;font-style:normal;font-variant:normal;font-weight:normal;font-stretch:normal;text-align:start;line-height:125%;letter-spacing:0px;word-spacing:0px;writing-mode:lr-tb;text-anchor:start;fill:#000000;fill-opacity:1;stroke:none;font-family:Arial;-inkscape-font-specification:Arial"
       x="39.877804"
       y="968.44727"
       id="text2986"
       sodipodi:linespacing="125%"
       transform="scale(0.98492939,1.0153012)"><tspan
         sodipodi:role="line"
         id="tspan2988"
         x="39.877804"
         y="968.44727">Ideas que vale la pena difundir</tspan></text>
  </g>
</svg>
