<?xml version="1.0" encoding="UTF-8" standalone="no"?>
<!-- Created with Inkscape (http://www.inkscape.org/) -->

<svg
   xmlns:dc="http://purl.org/dc/elements/1.1/"
   xmlns:cc="http://creativecommons.org/ns#"
   xmlns:rdf="http://www.w3.org/1999/02/22-rdf-syntax-ns#"
   xmlns:svg="http://www.w3.org/2000/svg"
   xmlns="http://www.w3.org/2000/svg"
   xmlns:sodipodi="http://sodipodi.sourceforge.net/DTD/sodipodi-0.dtd"
   xmlns:inkscape="http://www.inkscape.org/namespaces/inkscape"
   width="400.73355"
   height="240.9286"
   id="svg4613"
   version="1.1"
   inkscape:version="0.48.5 r10040"
   sodipodi:docname="Copia de TEDxUMSA3.svg">
  <defs
     id="defs4615" />
  <sodipodi:namedview
     id="base"
     pagecolor="#ffffff"
     bordercolor="#666666"
     borderopacity="1.0"
     inkscape:pageopacity="0.0"
     inkscape:pageshadow="2"
     inkscape:zoom="0.7"
     inkscape:cx="252.79712"
     inkscape:cy="24.893445"
     inkscape:document-units="px"
     inkscape:current-layer="layer1"
     showgrid="false"
     inkscape:window-width="1366"
     inkscape:window-height="713"
     inkscape:window-x="0"
     inkscape:window-y="33"
     inkscape:window-maximized="1"
     fit-margin-top="0"
     fit-margin-left="0"
     fit-margin-right="0"
     fit-margin-bottom="0" />
  <metadata
     id="metadata4618">
    <rdf:RDF>
      <cc:Work
         rdf:about="">
        <dc:format>image/svg+xml</dc:format>
        <dc:type
           rdf:resource="http://purl.org/dc/dcmitype/StillImage" />
        <dc:title />
      </cc:Work>
    </rdf:RDF>
  </metadata>
  <g
     inkscape:label="Capa 1"
     inkscape:groupmode="layer"
     id="layer1"
     transform="translate(-120.99815,-861.2792)">
    <g
       id="g3210"
       transform="translate(-0.488827,0)">
      <g
         id="text3013-9"
         style="font-size:128.09225464px;font-style:normal;font-variant:normal;font-weight:normal;font-stretch:normal;text-align:start;line-height:125%;letter-spacing:0px;word-spacing:0px;writing-mode:lr-tb;text-anchor:start;fill:#fd2c05;fill-opacity:1;stroke:none;font-family:Arial Black;-inkscape-font-specification:'Arial Black,'"
         transform="translate(90.231825,831.28704)">
        <path
           style="fill:#fd2c05;fill-opacity:1"
           sodipodi:nodetypes="ccccccccc"
           inkscape:connector-curvature="0"
           id="path3018-5"
           d="m 31.255228,30.197276 92.748682,0 -0.004,28.743847 -30.004001,0.0221 0.0221,78.063577 -34.01898,0 0.0098,-78.051337 -28.753681,0.02329 0,-28.801473" />
        <path
           style="fill:#fd2c05;fill-opacity:1"
           sodipodi:nodetypes="ccccccccccccc"
           inkscape:connector-curvature="0"
           id="path3020-1"
           d="m 128.08017,30.197276 89.92828,0 0,28.600815 -57.03323,0.1875 0,12.0423 57.00353,0.226714 -0.0221,25.708897 -56.98143,0.05653 0,11.887948 57.03628,0.0625 -0.0221,28.04283 -89.90923,0 0,-106.816038" />
        <path
           style="fill:#fd2c05;fill-opacity:1"
           sodipodi:nodetypes="cccccccccsccsccccsc"
           inkscape:connector-curvature="0"
           id="path3022-1"
           d="m 222.00285,30.056651 53.44397,0.140625 c 9.65736,1.06e-4 17.44638,1.31041 23.3671,3.930914 5.96907,2.620711 10.89484,6.381767 14.77733,11.283181 3.88228,4.901598 6.697,10.603845 8.44419,17.106759 1.74696,6.503063 2.62049,13.39429 2.62061,20.6737 -1.2e-4,11.404548 -1.31042,20.26123 -3.93093,26.57007 -2.57217,6.26037 -6.16337,11.52585 -10.77361,15.79646 -4.61043,4.22209 -9.56046,7.03682 -14.85012,8.44418 -7.23101,1.9412 -17.03253,2.91179 -22.90457,2.91179 l -50.17835,0 m 34.16351,-27.68779 8.08022,0 c 6.89117,0 11.79267,-0.75218 14.70452,-2.25664 2.91173,-1.55292 5.19262,-4.22206 6.84271,-8.007406 1.64993,-3.833821 2.47495,-6.574219 2.47502,-15.11551 -7e-5,-11.307383 -1.66743,-14.716851 -5.35562,-18.890487 -3.68833,-4.173484 -9.80309,-6.260346 -18.34426,-6.260346 l -8.22581,0" />
      </g>
      <g
         id="text3024-0"
         style="font-size:115.54692078px;font-style:normal;font-variant:normal;font-weight:normal;font-stretch:normal;line-height:125%;letter-spacing:0px;word-spacing:0px;fill:#fd2c05;fill-opacity:1;stroke:none;font-family:Liberation Serif;-inkscape-font-specification:Liberation Serif"
         transform="matrix(0.90666606,0,0,1.1029419,90.231825,831.28704)">
        <path
           sodipodi:nodetypes="cccccccccccc"
           inkscape:connector-curvature="0"
           id="path3029-5"
           style="text-align:start;writing-mode:lr-tb;text-anchor:start;fill:#fd2c05;fill-opacity:1;font-family:Arial Black;-inkscape-font-specification:'Arial Black,'"
           d="m 387.9737,27.19287 10.22422,13.78181 10.12759,-13.78181 26.91779,0 -23.87051,29.511547 24.37233,30.405851 -26.45454,0 -11.2024,-14.647387 -10.74193,14.59072 -26.67228,-0.02347 24.56706,-30.32738 -23.49251,-29.509879" />
      </g>
    </g>
    <g
       style="font-size:40px;font-style:normal;font-variant:normal;font-weight:normal;font-stretch:normal;line-height:125%;letter-spacing:0px;word-spacing:0px;fill:#000000;fill-opacity:1;stroke:none;font-family:Liberation Serif;-inkscape-font-specification:Liberation Serif"
       id="text3031-2"
       transform="matrix(3.5859362,0,0,3.5859362,425.42939,696.03479)">
      <path
         d="m -66.290395,83.032275 3.92463,0 -0.09859,17.528915 c -0.01619,2.87757 -0.325547,5.16277 -0.976563,6.85547 -0.651066,1.69271 -1.82945,3.07292 -3.535156,4.14062 -1.692728,1.05469 -3.919288,1.58203 -6.679688,1.58203 -2.682303,0 -4.883936,-0.46224 -6.589656,-1.38672 -1.705735,-0.92447 -2.923182,-2.25911 -3.652344,-4.0039 -0.72917,-1.75781 -1.031912,-5.1398 -0.995156,-8.173446 l 0.200436,-16.561488 3.624575,0.03268 -0.0011,17.825174 c -1.57e-4,2.54831 0.242684,4.30826 0.648736,5.48168 0.468742,1.17188 1.263012,2.07683 2.382812,2.71484 1.132801,0.63803 2.513008,0.95704 4.140625,0.95703 2.786442,1e-5 4.779742,-0.6315 5.964656,-1.89453 1.184875,-1.26301 1.61244,-3.60832 1.641777,-7.20197"
         style="text-align:start;writing-mode:lr-tb;text-anchor:start;fill:#000000;font-family:Arial;-inkscape-font-specification:Arial"
         id="path3036-8"
         inkscape:connector-curvature="0"
         sodipodi:nodetypes="ccsccsscsccsccssc" />
      <path
         d="m -55.96646,112.2848 0.01232,-29.285994 4.754154,0.01232 c 2.971896,8.3083 6.099324,17.318614 8.674476,25.719504 2.592728,-7.8835 5.731061,-17.412044 8.588526,-25.715788 l 4.740358,-0.0087 -0.0044,29.290758 -3.338618,-0.004 -0.006,-24.830564 -8.087752,24.835194 -3.619779,-0.002 -8.388755,-24.656427 0.01969,24.652297"
         style="text-align:start;writing-mode:lr-tb;text-anchor:start;fill:#000000;font-family:Arial;-inkscape-font-specification:Arial"
         id="path3038-7"
         inkscape:connector-curvature="0"
         sodipodi:nodetypes="ccccccccccccc" />
      <path
         d="m -23.612582,103.10859 3.320001,-0.007 c 0.169265,1.4694 0.668512,3.07407 1.280497,4.02248 0.624993,0.93507 1.588533,1.76619 2.890625,2.35394 1.302072,0.5744 2.976066,0.72218 4.603682,0.72218 1.445297,0 2.6516207,-0.63871 3.7584081,-1.07954 1.1067521,-0.44081 1.9270638,-1.04192 2.4609375,-1.80334 0.5468543,-0.77476 0.8202916,-1.61631 0.8203125,-2.52467 -2.09e-5,-0.92169 -0.2604373,-1.72318 -0.78125,-2.40446 -0.520853,-0.6946 -1.3802271,-1.27567 -2.578125,-1.74322 -0.768246,-0.30722 -2.4674631,-0.781437 -5.0976561,-1.422636 -2.630218,-0.654532 -4.890965,-1.269003 -5.945645,-1.843415 -1.367193,-0.734677 -2.389327,-1.643026 -3.066406,-2.725047 -0.664066,-1.095343 -0.996097,-2.317605 -0.996094,-3.666791 -3e-6,-1.482723 0.410153,-2.865283 1.230469,-4.147682 0.820307,-1.295706 2.436524,-2.277523 4.012051,-2.945455 1.575511,-0.667874 3.326812,-1.001826 5.253906,-1.001856 2.122381,3e-5 3.9908686,0.354019 5.6054689,1.061967 1.6275839,0.694648 2.8775827,1.723218 3.75,3.085715 0.8723726,1.362548 1.3411221,2.905404 1.40625,4.628573 l -3.6328125,0.280519 c -0.1953324,-1.85675 -0.8593943,-3.259346 -1.9921875,-4.207793 -1.1198087,-0.948397 -2.7799629,-1.422608 -4.9804689,-1.422635 -2.291677,2.7e-5 -4.522587,0.573597 -5.577265,1.441846 -1.041674,0.854941 -1.562507,1.890191 -1.5625,3.105753 -7e-6,1.055308 0.371087,1.923582 1.113281,2.604823 0.729158,0.681281 3.187932,1.243145 6.260859,1.964464 3.0859212,0.707994 5.2018045,1.329144 6.3476564,1.863451 1.6666452,0.78814 2.8971128,1.789995 3.6914062,3.005569 0.7942466,1.20223 1.19138166,2.59148 1.19140625,4.16771 -2.459e-5,1.56291 -0.43622205,3.03897 -1.30859375,4.42821 -0.8724182,1.37588 -2.1289274,2.4512 -3.7695312,3.22597 -1.6276221,0.76141 -3.4635578,1.14211 -5.5078129,1.14211 -2.591157,0 -4.765634,-0.17787 -6.523437,-0.95264 -1.744798,-0.77477 -3.118494,-1.93691 -4.121094,-3.48645 -0.989586,-1.56289 -1.504256,-3.56648 -1.556338,-5.53012"
         style="text-align:start;writing-mode:lr-tb;text-anchor:start;fill:#000000;font-family:Arial;-inkscape-font-specification:Arial"
         id="path3040-0"
         inkscape:connector-curvature="0"
         sodipodi:nodetypes="ccccsscccccccsccccccccccccccccccsccc" />
      <path
         d="m 2.0394551,112.29097 10.2011759,-29.267516 4.581165,-0.0062 10.033763,29.278326 -3.901795,-0.003 -2.793003,-8.92242 -11.4345293,0 -3.0660998,8.92242 m 3.8809826,-11.98439 9.5675975,0 -2.883706,-7.981976 c -0.911472,-2.408832 -1.348231,-3.8827 -1.790926,-5.432203 -0.364596,1.835961 -1.119242,3.153579 -1.783293,4.963453"
         style="text-align:start;writing-mode:lr-tb;text-anchor:start;fill:#000000;font-family:Arial;-inkscape-font-specification:Arial"
         id="path3042-2"
         inkscape:connector-curvature="0"
         sodipodi:nodetypes="ccccccccccccc" />
    </g>
  </g>
</svg>
