<?xml version="1.0" encoding="UTF-8" standalone="no"?>
<!-- Created with Inkscape (http://www.inkscape.org/) -->

<svg
   xmlns:dc="http://purl.org/dc/elements/1.1/"
   xmlns:cc="http://creativecommons.org/ns#"
   xmlns:rdf="http://www.w3.org/1999/02/22-rdf-syntax-ns#"
   xmlns:svg="http://www.w3.org/2000/svg"
   xmlns="http://www.w3.org/2000/svg"
   xmlns:sodipodi="http://sodipodi.sourceforge.net/DTD/sodipodi-0.dtd"
   xmlns:inkscape="http://www.inkscape.org/namespaces/inkscape"
   width="860"
   height="240"
   id="svg4613"
   version="1.1"
   inkscape:version="0.48.5 r10040"
   sodipodi:docname="TEDxUMSA1.svg">
  <defs
     id="defs4615" />
  <sodipodi:namedview
     id="base"
     pagecolor="#000"
     bordercolor="#666666"
     borderopacity="1.0"
     inkscape:pageopacity="0.0"
     inkscape:pageshadow="2"
     inkscape:zoom="0.7"
     inkscape:cx="670.44085"
     inkscape:cy="123.9517"
     inkscape:document-units="px"
     inkscape:current-layer="layer1"
     showgrid="false"
     inkscape:window-width="1366"
     inkscape:window-height="712"
     inkscape:window-x="0"
     inkscape:window-y="34"
     inkscape:window-maximized="1" />
  <metadata
     id="metadata4618">
    <rdf:RDF>
      <cc:Work
         rdf:about="">
        <dc:format>image/svg+xml</dc:format>
        <dc:type
           rdf:resource="http://purl.org/dc/dcmitype/StillImage" />
        <dc:title />
      </cc:Work>
    </rdf:RDF>
  </metadata>
  <g
     inkscape:label="Capa 1"
     inkscape:groupmode="layer"
     id="layer1"
     transform="translate(0,-812.36218)">
    <g
       transform="translate(8.369967,811.11372)"
       style="font-size:128.09225464px;font-style:normal;font-variant:normal;font-weight:normal;font-stretch:normal;text-align:start;line-height:125%;letter-spacing:0px;word-spacing:0px;writing-mode:lr-tb;text-anchor:start;fill:#fd2c05;fill-opacity:1;stroke:none;font-family:Arial Black;-inkscape-font-specification:'Arial Black,'"
       id="text3013-9">
      <path
         d="m 31.255228,30.197276 92.748682,0 -0.004,28.743847 -30.004001,0.0221 0.0221,78.063577 -34.01898,0 0.0098,-78.051337 -28.753681,0.02329 0,-28.801473"
         id="path3018-5"
         inkscape:connector-curvature="0"
         sodipodi:nodetypes="ccccccccc"
         style="fill:#fd2c05;fill-opacity:1" />
      <path
         d="m 128.08017,30.197276 89.92828,0 0,28.600815 -57.03323,0.1875 0,12.0423 57.00353,0.226714 -0.0221,25.708897 -56.98143,0.05653 0,11.887948 57.03628,0.0625 -0.0221,28.04283 -89.90923,0 0,-106.816038"
         id="path3020-1"
         inkscape:connector-curvature="0"
         sodipodi:nodetypes="ccccccccccccc"
         style="fill:#fd2c05;fill-opacity:1" />
      <path
         d="m 222.00285,30.056651 53.44397,0.140625 c 9.65736,1.06e-4 17.44638,1.31041 23.3671,3.930914 5.96907,2.620711 10.89484,6.381767 14.77733,11.283181 3.88228,4.901598 6.697,10.603845 8.44419,17.106759 1.74696,6.503063 2.62049,13.39429 2.62061,20.6737 -1.2e-4,11.404548 -1.31042,20.26123 -3.93093,26.57007 -2.57217,6.26037 -6.16337,11.52585 -10.77361,15.79646 -4.61043,4.22209 -9.56046,7.03682 -14.85012,8.44418 -7.23101,1.9412 -17.03253,2.91179 -22.90457,2.91179 l -50.17835,0 m 34.16351,-27.68779 8.08022,0 c 6.89117,0 11.79267,-0.75218 14.70452,-2.25664 2.91173,-1.55292 5.19262,-4.22206 6.84271,-8.007406 1.64993,-3.833821 2.47495,-6.574219 2.47502,-15.11551 -7e-5,-11.307383 -1.66743,-14.716851 -5.35562,-18.890487 -3.68833,-4.173484 -9.80309,-6.260346 -18.34426,-6.260346 l -8.22581,0"
         id="path3022-1"
         inkscape:connector-curvature="0"
         sodipodi:nodetypes="cccccccccsccsccccsc"
         style="fill:#fd2c05;fill-opacity:1" />
    </g>
    <g
       transform="matrix(0.90666606,0,0,1.1029419,8.369967,811.11372)"
       style="font-size:115.54692078px;font-style:normal;font-variant:normal;font-weight:normal;font-stretch:normal;line-height:125%;letter-spacing:0px;word-spacing:0px;fill:#fd2c05;fill-opacity:1;stroke:none;font-family:Liberation Serif;-inkscape-font-specification:Liberation Serif"
       id="text3024-0">
      <path
         d="m 387.9737,27.19287 10.22422,13.78181 10.12759,-13.78181 26.91779,0 -23.87051,29.511547 24.37233,30.405851 -26.45454,0 -11.2024,-14.647387 -10.74193,14.59072 -26.67228,-0.02347 24.56706,-30.32738 -23.49251,-29.509879"
         style="text-align:start;writing-mode:lr-tb;text-anchor:start;fill:#fd2c05;fill-opacity:1;font-family:Arial Black;-inkscape-font-specification:'Arial Black,'"
         id="path3029-5"
         inkscape:connector-curvature="0"
         sodipodi:nodetypes="cccccccccccc" />
    </g>
    <path
       sodipodi:nodetypes="ccsccsscsccsccssc"
       inkscape:connector-curvature="0"
       id="path3036-8"
       style="font-size:40px;font-style:normal;font-variant:normal;font-weight:normal;font-stretch:normal;text-align:start;line-height:125%;letter-spacing:0px;word-spacing:0px;writing-mode:lr-tb;text-anchor:start;fill:#000;fill-opacity:1;stroke:none;font-family:Arial;-inkscape-font-specification:Arial"
       d="m 486.35943,842.18134 14.07348,0 -0.35354,62.85757 c -0.0581,10.31878 -1.16739,18.51337 -3.50189,24.58328 -2.33469,6.06995 -6.5603,11.01929 -12.67685,14.848 -6.07001,3.78205 -14.05432,5.67306 -23.95293,5.67306 -9.61857,0 -17.51349,-1.65757 -23.63009,-4.97269 -6.11666,-3.31509 -10.48234,-8.10103 -13.09707,-14.35773 -2.61476,-6.3034 -3.70037,-18.431 -3.56857,-29.30946 l 0.71875,-59.38844 12.9975,0.11719 -0.004,63.91994 c -5.6e-4,9.13807 0.87025,15.44914 2.32633,19.65695 1.68088,4.20229 4.52908,7.44738 8.54461,9.73525 4.06215,2.28793 9.01149,3.43188 14.84802,3.43184 9.992,4e-5 17.13985,-2.26451 21.38887,-6.79366 4.24889,-4.52907 5.78211,-12.9392 5.88731,-25.8258" />
    <path
       sodipodi:nodetypes="ccccccccccccc"
       inkscape:connector-curvature="0"
       id="path3038-7"
       style="font-size:40px;font-style:normal;font-variant:normal;font-weight:normal;font-stretch:normal;text-align:start;line-height:125%;letter-spacing:0px;word-spacing:0px;writing-mode:lr-tb;text-anchor:start;fill:#000;fill-opacity:1;stroke:none;font-family:Arial;-inkscape-font-specification:Arial"
       d="m 523.38041,947.07903 0.0442,-105.01771 17.0481,0.0442 c 10.65703,29.79304 21.87178,62.10345 31.10611,92.2285 9.29736,-28.26973 20.55122,-62.43848 30.79791,-92.21517 l 16.99862,-0.0312 -0.0158,105.03479 -11.97207,-0.0143 -0.0215,-89.04082 -29.00217,89.05742 -12.98029,-0.007 -30.08154,-88.41638 0.0706,88.40157" />
    <path
       sodipodi:nodetypes="ccccsscccccccsccccccccccccccccccsccc"
       inkscape:connector-curvature="0"
       id="path3040-0"
       style="font-size:40px;font-style:normal;font-variant:normal;font-weight:normal;font-stretch:normal;text-align:start;line-height:125%;letter-spacing:0px;word-spacing:0px;writing-mode:lr-tb;text-anchor:start;fill:#000;fill-opacity:1;stroke:none;font-family:Arial;-inkscape-font-specification:Arial"
       d="m 639.39935,914.17373 11.90531,-0.0251 c 0.60697,5.26918 2.39724,11.02342 4.59178,14.42436 2.24118,3.3531 5.69638,6.33345 10.3656,8.44108 4.66914,2.05976 10.67198,2.58969 16.50851,2.58969 5.18274,0 9.50854,-2.29037 13.47741,-3.87116 3.96874,-1.58072 6.91033,-3.73626 8.82476,-6.46666 1.96099,-2.77824 2.94152,-5.79599 2.94159,-9.05331 -7e-5,-3.30512 -0.93391,-6.17921 -2.80151,-8.62224 -1.86775,-2.49079 -4.94941,-4.57447 -9.24499,-6.25107 -2.75488,-1.10168 -8.84817,-2.80219 -18.27987,-5.10149 -9.4318,-2.34711 -17.53869,-4.55056 -21.32071,-6.61037 -4.90266,-2.6345 -8.56797,-5.89178 -10.99593,-9.77184 -2.3813,-3.92783 -3.57194,-8.31078 -3.57193,-13.14888 -10e-6,-5.31695 1.47078,-10.27472 4.41238,-14.87332 2.94157,-4.64632 8.73722,-8.16705 14.38696,-10.56222 5.64968,-2.39495 11.92974,-3.59248 18.84017,-3.59259 7.61072,1.1e-4 14.311,1.26949 20.10086,3.80815 5.83641,2.49096 10.31882,6.17935 13.44726,11.06518 3.12827,4.88601 4.80917,10.41859 5.04272,16.59776 l -13.02703,1.00593 c -0.70045,-6.65819 -3.08174,-11.68781 -7.14386,-15.08888 -4.01556,-3.40089 -9.96877,-5.10138 -17.85965,-5.10148 -8.2178,1e-4 -16.2177,2.05688 -19.99971,5.17037 -3.73538,3.06576 -5.60305,6.7781 -5.60303,11.13703 -2e-5,3.78427 1.3307,6.89784 3.99216,9.34073 2.61471,2.44303 11.43172,4.45784 22.45104,7.04444 11.06591,2.53882 18.65334,4.76623 22.76229,6.68222 5.97648,2.82622 10.38886,6.41881 13.23715,10.77778 2.84811,4.31112 4.27221,9.29288 4.2723,14.94514 -9e-5,5.6045 -1.56426,10.89755 -4.69253,15.87928 -3.12844,4.93382 -7.6342,8.78985 -13.5173,11.56812 -5.83655,2.73037 -12.4201,4.09553 -19.75066,4.09553 -9.29173,0 -17.08926,-0.63783 -23.39263,-3.4161 -6.25674,-2.77828 -11.18272,-6.94564 -14.77798,-12.50219 -3.5486,-5.60442 -5.39417,-12.78917 -5.58093,-19.83066" />
    <path
       sodipodi:nodetypes="ccccccccccccc"
       inkscape:connector-curvature="0"
       id="path3042-2"
       style="font-size:40px;font-style:normal;font-variant:normal;font-weight:normal;font-stretch:normal;text-align:start;line-height:125%;letter-spacing:0px;word-spacing:0px;writing-mode:lr-tb;text-anchor:start;fill:#000;fill-opacity:1;stroke:none;font-family:Arial;-inkscape-font-specification:Arial"
       d="m 731.38592,947.10115 36.58076,-104.95144 16.42777,-0.0222 35.98043,104.99021 -13.99159,-0.0108 -10.01553,-31.99523 -41.00349,0 -10.99484,31.99523 m 13.91696,-42.97526 34.30879,0 -10.34078,-28.62286 c -3.26848,-8.63791 -4.83467,-13.92311 -6.42215,-19.47953 -1.30742,6.58364 -4.01353,11.30853 -6.39477,17.79863" />
    <g
       style="font-size:40px;font-style:normal;font-variant:normal;font-weight:normal;font-stretch:normal;line-height:125%;letter-spacing:0px;word-spacing:0px;fill:#000;fill-opacity:1;stroke:none;font-family:Liberation Serif;-inkscape-font-specification:Liberation Serif"
       id="text3823-1"
       transform="matrix(0.74703895,0,0,1.0979087,109.49018,1144.6253)">
      <g
         transform="scale(1.0940165,0.91406301)"
         style="font-size:44.80265045000000157px;fill:#000;font-family:Liberation Serif;-inkscape-font-specification:Liberation Serif"
         id="text4221">
        <path
           d="m 7.2947922,-162.07713 8.9036518,0 0,6.05973 -8.9036518,0 0,-6.05973 m 0,8.83802 8.9036518,0 0,23.23263 -8.9036518,0 0,-23.23263"
           style="text-align:start;writing-mode:lr-tb;text-anchor:start;font-family:Arial Black;-inkscape-font-specification:'Arial Black,';fill:#000"
           id="path4230"
           inkscape:connector-curvature="0" />
        <path
           d="m 21.930034,-153.23911 8.291116,0 0,3.7846 c 1.239644,-1.5459 2.493884,-2.64701 3.762722,-3.30332 1.268809,-0.67085 2.814733,-1.00629 4.637775,-1.00631 2.464707,2e-5 4.389819,0.73652 5.775341,2.20951 1.400057,1.45843 2.100097,3.71898 2.100125,6.78165 l 0,14.7665 -8.947405,0 0,-12.77576 c -1.8e-5,-1.45841 -0.269825,-2.48659 -0.809422,-3.08456 -0.539633,-0.61252 -1.29801,-0.91879 -2.275135,-0.9188 -1.079245,10e-6 -1.954296,0.40837 -2.625155,1.22507 -0.670885,0.81673 -1.006322,2.28244 -1.00631,4.39713 l 0,11.15692 -8.903652,0 0,-23.23263"
           style="text-align:start;writing-mode:lr-tb;text-anchor:start;font-family:Arial Black;-inkscape-font-specification:'Arial Black,';fill:#000"
           id="path4232"
           inkscape:connector-curvature="0" />
        <path
           d="m 76.314504,-162.07713 0,32.07065 -8.334868,0 0,-3.43458 c -1.166753,1.45842 -2.231398,2.44285 -3.193939,2.9533 -1.283423,0.67087 -2.712673,1.00631 -4.287753,1.00631 -3.164779,0 -5.585753,-1.2032 -7.26293,-3.60959 -1.662601,-2.40639 -2.493899,-5.33052 -2.493898,-8.7724 -10e-7,-3.85021 0.918802,-6.79621 2.756413,-8.83802 1.852187,-2.04176 4.20024,-3.06266 7.044167,-3.06268 1.385486,2e-5 2.639726,0.23337 3.762723,0.70004 1.137551,0.46672 2.143859,1.16676 3.018928,2.10013 l 0,-11.11316 8.991157,0 m -8.925528,20.3887 c -1.8e-5,-1.82301 -0.386499,-3.17934 -1.159443,-4.06899 -0.772979,-0.9042 -1.750119,-1.35631 -2.931424,-1.35633 -1.035491,2e-5 -1.90325,0.43025 -2.603279,1.2907 -0.700052,0.86049 -1.050072,2.30432 -1.050062,4.33151 -10e-6,1.89596 0.357302,3.28874 1.071939,4.17837 0.729197,0.87506 1.626124,1.31259 2.690784,1.31258 1.137552,10e-6 2.085523,-0.44481 2.843918,-1.33445 0.75836,-0.88963 1.137549,-2.34076 1.137567,-4.35339"
           style="text-align:start;writing-mode:lr-tb;text-anchor:start;font-family:Arial Black;-inkscape-font-specification:'Arial Black,';fill:#000"
           id="path4234"
           inkscape:connector-curvature="0" />
        <path
           d="m 107.57573,-139.41329 -17.851055,0 c 0.160416,1.42926 0.546896,2.4939 1.159444,3.19394 0.860455,1.00631 1.983437,1.50947 3.368949,1.50946 0.875036,1e-5 1.706334,-0.21876 2.493898,-0.65629 0.48126,-0.27709 0.998998,-0.76566 1.553217,-1.46571 l 8.772397,0.80942 c -1.34178,2.33348 -2.96062,4.01066 -4.85654,5.03155 -1.89597,1.00631 -4.615917,1.50947 -8.159858,1.50947 -3.077278,0 -5.498252,-0.43024 -7.26293,-1.29071 -1.764694,-0.87505 -3.230404,-2.25325 -4.397135,-4.13461 -1.152154,-1.89594 -1.728229,-4.12003 -1.728227,-6.67227 -2e-6,-3.63145 1.15944,-6.57017 3.47833,-8.81615 2.333464,-2.24594 5.549276,-3.36893 9.647446,-3.36895 3.325179,2e-5 5.950331,0.50318 7.875464,1.50946 1.92509,1.00633 3.3908,2.46475 4.39714,4.37526 1.00628,1.91055 1.50943,4.39715 1.50946,7.45982 l 0,1.00631 m -9.056784,-4.26588 c -0.17503,-1.72092 -0.641724,-2.95328 -1.400083,-3.69709 -0.743812,-0.74378 -1.728244,-1.11568 -2.9533,-1.11569 -1.414681,1e-5 -2.544955,0.56151 -3.390826,1.68447 -0.539626,0.70006 -0.882354,1.74283 -1.028185,3.12831 l 8.772394,0"
           style="text-align:start;writing-mode:lr-tb;text-anchor:start;font-family:Arial Black;-inkscape-font-specification:'Arial Black,';fill:#000"
           id="path4236"
           inkscape:connector-curvature="0" />
        <path
           d="m 111.75411,-121.16846 0,-32.07065 8.33486,0 0,3.43458 c 1.15214,-1.44382 2.2095,-2.42096 3.17207,-2.93142 1.29797,-0.68544 2.73452,-1.02817 4.30963,-1.02819 3.10641,2e-5 5.50551,1.18863 7.1973,3.56584 1.70632,2.37724 2.5595,5.31595 2.55952,8.81614 -2e-5,3.86482 -0.92612,6.81812 -2.77829,8.8599 -1.85221,2.0272 -4.19297,3.04081 -7.02229,3.04081 -1.37093,0 -2.62517,-0.23335 -3.76272,-0.70005 -1.123,-0.46669 -2.1293,-1.15944 -3.01893,-2.07824 l 0,11.09128 -8.99115,0 m 8.92552,-20.38871 c -1e-5,1.83762 0.38647,3.20124 1.15945,4.09087 0.77295,0.88964 1.75009,1.33446 2.93142,1.33445 1.03546,10e-6 1.90322,-0.42293 2.60328,-1.26882 0.70002,-0.86046 1.05004,-2.31159 1.05006,-4.35338 -2e-5,-1.88135 -0.36462,-3.25956 -1.09381,-4.13462 -0.72923,-0.88962 -1.61886,-1.33444 -2.66891,-1.33446 -1.13758,2e-5 -2.08555,0.44484 -2.84392,1.33446 -0.75839,0.88965 -1.13758,2.33348 -1.13757,4.3315"
           style="text-align:start;writing-mode:lr-tb;text-anchor:start;font-family:Arial Black;-inkscape-font-specification:'Arial Black,';fill:#000"
           id="path4238"
           inkscape:connector-curvature="0" />
        <path
           d="m 167.42928,-139.41329 -17.85106,0 c 0.16042,1.42926 0.5469,2.4939 1.15945,3.19394 0.86045,1.00631 1.98343,1.50947 3.36894,1.50946 0.87504,1e-5 1.70634,-0.21876 2.4939,-0.65629 0.48126,-0.27709 0.999,-0.76566 1.55322,-1.46571 l 8.77239,0.80942 c -1.34177,2.33348 -2.96061,4.01066 -4.85653,5.03155 -1.89597,1.00631 -4.61592,1.50947 -8.15986,1.50947 -3.07728,0 -5.49825,-0.43024 -7.26293,-1.29071 -1.7647,-0.87505 -3.23041,-2.25325 -4.39714,-4.13461 -1.15215,-1.89594 -1.72823,-4.12003 -1.72822,-6.67227 -1e-5,-3.63145 1.15944,-6.57017 3.47833,-8.81615 2.33346,-2.24594 5.54927,-3.36893 9.64744,-3.36895 3.32518,2e-5 5.95033,0.50318 7.87547,1.50946 1.92509,1.00633 3.3908,2.46475 4.39713,4.37526 1.00628,1.91055 1.50944,4.39715 1.50947,7.45982 l 0,1.00631 m -9.05679,-4.26588 c -0.17503,-1.72092 -0.64172,-2.95328 -1.40008,-3.69709 -0.74381,-0.74378 -1.72824,-1.11568 -2.9533,-1.11569 -1.41468,1e-5 -2.54496,0.56151 -3.39083,1.68447 -0.53962,0.70006 -0.88235,1.74283 -1.02818,3.12831 l 8.77239,0"
           style="text-align:start;writing-mode:lr-tb;text-anchor:start;font-family:Arial Black;-inkscape-font-specification:'Arial Black,';fill:#000"
           id="path4240"
           inkscape:connector-curvature="0" />
        <path
           d="m 171.56388,-153.23911 8.29112,0 0,3.7846 c 1.23964,-1.5459 2.49388,-2.64701 3.76272,-3.30332 1.26881,-0.67085 2.81473,-1.00629 4.63778,-1.00631 2.4647,2e-5 4.38982,0.73652 5.77534,2.20951 1.40005,1.45843 2.1001,3.71898 2.10012,6.78165 l 0,14.7665 -8.9474,0 0,-12.77576 c -2e-5,-1.45841 -0.26983,-2.48659 -0.80942,-3.08456 -0.53964,-0.61252 -1.29801,-0.91879 -2.27514,-0.9188 -1.07924,10e-6 -1.95429,0.40837 -2.62515,1.22507 -0.67089,0.81673 -1.00633,2.28244 -1.00631,4.39713 l 0,11.15692 -8.90366,0 0,-23.23263"
           style="text-align:start;writing-mode:lr-tb;text-anchor:start;font-family:Arial Black;-inkscape-font-specification:'Arial Black,';fill:#000"
           id="path4242"
           inkscape:connector-curvature="0" />
        <path
           d="m 225.94837,-162.07713 0,32.07065 -8.33487,0 0,-3.43458 c -1.16675,1.45842 -2.2314,2.44285 -3.19394,2.9533 -1.28342,0.67087 -2.71267,1.00631 -4.28775,1.00631 -3.16478,0 -5.58575,-1.2032 -7.26293,-3.60959 -1.6626,-2.40639 -2.4939,-5.33052 -2.4939,-8.7724 0,-3.85021 0.9188,-6.79621 2.75641,-8.83802 1.85219,-2.04176 4.20024,-3.06266 7.04417,-3.06268 1.38549,2e-5 2.63973,0.23337 3.76272,0.70004 1.13756,0.46672 2.14386,1.16676 3.01893,2.10013 l 0,-11.11316 8.99116,0 m -8.92553,20.3887 c -2e-5,-1.82301 -0.3865,-3.17934 -1.15944,-4.06899 -0.77298,-0.9042 -1.75012,-1.35631 -2.93143,-1.35633 -1.03549,2e-5 -1.90325,0.43025 -2.60327,1.2907 -0.70006,0.86049 -1.05008,2.30432 -1.05007,4.33151 -1e-5,1.89596 0.35731,3.28874 1.07194,4.17837 0.7292,0.87506 1.62613,1.31259 2.69079,1.31258 1.13755,10e-6 2.08552,-0.44481 2.84391,-1.33445 0.75836,-0.88963 1.13755,-2.34076 1.13757,-4.35339"
           style="text-align:start;writing-mode:lr-tb;text-anchor:start;font-family:Arial Black;-inkscape-font-specification:'Arial Black,';fill:#000"
           id="path4244"
           inkscape:connector-curvature="0" />
        <path
           d="m 257.20958,-139.41329 -17.85105,0 c 0.16041,1.42926 0.54689,2.4939 1.15944,3.19394 0.86045,1.00631 1.98344,1.50947 3.36895,1.50946 0.87503,1e-5 1.70633,-0.21876 2.4939,-0.65629 0.48126,-0.27709 0.99899,-0.76566 1.55321,-1.46571 l 8.7724,0.80942 c -1.34178,2.33348 -2.96062,4.01066 -4.85654,5.03155 -1.89597,1.00631 -4.61592,1.50947 -8.15986,1.50947 -3.07728,0 -5.49825,-0.43024 -7.26293,-1.29071 -1.76469,-0.87505 -3.2304,-2.25325 -4.39713,-4.13461 -1.15216,-1.89594 -1.72823,-4.12003 -1.72823,-6.67227 0,-3.63145 1.15944,-6.57017 3.47833,-8.81615 2.33346,-2.24594 5.54928,-3.36893 9.64745,-3.36895 3.32517,2e-5 5.95033,0.50318 7.87546,1.50946 1.92509,1.00633 3.3908,2.46475 4.39714,4.37526 1.00628,1.91055 1.50943,4.39715 1.50946,7.45982 l 0,1.00631 m -9.05678,-4.26588 c -0.17503,-1.72092 -0.64173,-2.95328 -1.40009,-3.69709 -0.74381,-0.74378 -1.72824,-1.11568 -2.9533,-1.11569 -1.41468,1e-5 -2.54495,0.56151 -3.39082,1.68447 -0.53963,0.70006 -0.88236,1.74283 -1.02819,3.12831 l 8.7724,0"
           style="text-align:start;writing-mode:lr-tb;text-anchor:start;font-family:Arial Black;-inkscape-font-specification:'Arial Black,';fill:#000"
           id="path4246"
           inkscape:connector-curvature="0" />
        <path
           d="m 261.34422,-153.23911 8.29111,0 0,3.7846 c 1.23965,-1.5459 2.49389,-2.64701 3.76273,-3.30332 1.26881,-0.67085 2.81473,-1.00629 4.63777,-1.00631 2.46471,2e-5 4.38982,0.73652 5.77534,2.20951 1.40006,1.45843 2.1001,3.71898 2.10013,6.78165 l 0,14.7665 -8.94741,0 0,-12.77576 c -2e-5,-1.45841 -0.26982,-2.48659 -0.80942,-3.08456 -0.53963,-0.61252 -1.29801,-0.91879 -2.27513,-0.9188 -1.07925,10e-6 -1.9543,0.40837 -2.62516,1.22507 -0.67088,0.81673 -1.00632,2.28244 -1.00631,4.39713 l 0,11.15692 -8.90365,0 0,-23.23263"
           style="text-align:start;writing-mode:lr-tb;text-anchor:start;font-family:Arial Black;-inkscape-font-specification:'Arial Black,';fill:#000"
           id="path4248"
           inkscape:connector-curvature="0" />
        <path
           d="m 302.01224,-162.07713 0,8.83802 4.90029,0 0,6.49726 -4.90029,0 0,8.24736 c -2e-5,0.99174 0.0948,1.64802 0.28439,1.96887 0.29167,0.49587 0.80212,0.7438 1.53134,0.74379 0.65627,1e-5 1.57508,-0.18959 2.75641,-0.56878 l 0.65629,6.14724 c -2.20223,0.48128 -4.2586,0.72192 -6.16911,0.72192 -2.21681,0 -3.85024,-0.2844 -4.90029,-0.85318 -1.05007,-0.56878 -1.83033,-1.42925 -2.34077,-2.5814 -0.49586,-1.16673 -0.7438,-3.04809 -0.74379,-5.64409 l 0,-8.18173 -3.28144,0 0,-6.49726 3.28144,0 0,-4.26588 8.92553,-4.57214"
           style="text-align:start;writing-mode:lr-tb;text-anchor:start;font-family:Arial Black;-inkscape-font-specification:'Arial Black,';fill:#000"
           id="path4250"
           inkscape:connector-curvature="0" />
        <path
           d="m 311.44092,-162.07713 8.92553,0 0,32.07065 -8.92553,0 0,-32.07065"
           style="text-align:start;writing-mode:lr-tb;text-anchor:start;font-family:Arial Black;-inkscape-font-specification:'Arial Black,';fill:#000"
           id="path4252"
           inkscape:connector-curvature="0" />
        <path
           d="m 324.34793,-153.23911 9.40681,0 4.7909,15.46654 4.44089,-15.46654 8.7724,0 -9.20992,24.82959 c -1.05008,2.82933 -2.12202,4.73986 -3.21582,5.73159 -1.54594,1.40008 -3.90128,2.10012 -7.06604,2.10013 -1.28342,-1e-5 -3.26687,-0.17502 -5.95035,-0.52503 l -0.70005,-6.21287 c 1.28341,0.40835 2.71266,0.61253 4.28776,0.61254 1.05005,-1e-5 1.89594,-0.24065 2.53765,-0.72192 0.65628,-0.48128 1.21048,-1.34175 1.6626,-2.5814 l -9.75683,-23.23263"
           style="text-align:start;writing-mode:lr-tb;text-anchor:start;font-family:Arial Black;-inkscape-font-specification:'Arial Black,';fill:#000"
           id="path4254"
           inkscape:connector-curvature="0" />
        <path
           d="m 368.23179,-141.55717 c 0,-3.54394 1.1959,-6.46078 3.58771,-8.75052 2.3918,-2.30428 5.6222,-3.45643 9.6912,-3.45645 4.65234,2e-5 8.16713,1.34906 10.54437,4.04711 1.91051,2.17307 2.86577,4.84926 2.8658,8.0286 -3e-5,3.57314 -1.18864,6.50456 -3.56584,8.79427 -2.36266,2.27514 -5.63681,3.41271 -9.82245,3.41271 -3.73357,0 -6.7525,-0.94798 -9.05679,-2.84392 -2.82934,-2.34805 -4.244,-5.42532 -4.244,-9.2318 m 8.92553,-0.0219 c -1e-5,2.07096 0.41564,3.6023 1.24695,4.59402 0.84587,0.99173 1.90322,1.48759 3.17206,1.48759 1.28339,0 2.33345,-0.48857 3.15018,-1.46572 0.83128,-0.97713 1.24693,-2.54493 1.24695,-4.7034 -2e-5,-2.01261 -0.41567,-3.50748 -1.24695,-4.48464 -0.83131,-0.99171 -1.8595,-1.48757 -3.08455,-1.48759 -1.29801,2e-5 -2.36995,0.50317 -3.21582,1.50947 -0.84589,0.99174 -1.26883,2.50849 -1.26882,4.55027"
           style="text-align:start;writing-mode:lr-tb;text-anchor:start;font-family:Arial Black;-inkscape-font-specification:'Arial Black,';fill:#000"
           id="path4256"
           inkscape:connector-curvature="0" />
        <path
           d="m 399.33987,-153.23911 8.33486,0 0,3.80648 c 0.80212,-1.648 1.62613,-2.77827 2.47203,-3.39083 0.86045,-0.6271 1.9178,-0.94066 3.17206,-0.94068 1.31256,2e-5 2.7491,0.40838 4.30963,1.22507 l -2.75641,6.34413 c -1.05008,-0.43751 -1.88138,-0.65627 -2.4939,-0.65629 -1.16675,2e-5 -2.07097,0.48129 -2.71266,1.44383 -0.91882,1.35635 -1.37822,3.894 -1.37821,7.61295 l 0,7.78797 -8.9474,0 0,-23.23263"
           style="text-align:start;writing-mode:lr-tb;text-anchor:start;font-family:Arial Black;-inkscape-font-specification:'Arial Black,';fill:#000"
           id="path4258"
           inkscape:connector-curvature="0" />
        <path
           d="m 436.46396,-153.23911 8.33486,0 0,21.94192 0.0219,1.02819 c -3e-5,1.45842 -0.31359,2.84392 -0.94068,4.1565 -0.61256,1.32715 -1.43657,2.39909 -2.47202,3.21581 -1.02092,0.81671 -2.3262,1.40737 -3.91586,1.77198 -1.57511,0.3646 -3.38355,0.5469 -5.42532,0.54691 -4.66695,-1e-5 -7.87547,-0.70005 -9.62557,-2.10013 -1.73552,-1.40009 -2.60328,-3.27415 -2.60328,-5.6222 0,-0.29169 0.0146,-0.68546 0.0437,-1.18132 l 8.64114,0.98443 c 0.21875,0.80213 0.55419,1.35633 1.00631,1.6626 0.65628,0.4521 1.48028,0.67816 2.47202,0.67816 1.2834,0 2.23866,-0.34273 2.8658,-1.02818 0.64168,-0.68546 0.96254,-1.88137 0.96255,-3.58772 l 0,-3.52208 c -0.87507,1.03548 -1.75012,1.78657 -2.62515,2.25326 -1.37093,0.72921 -2.85123,1.09382 -4.44089,1.09381 -3.10644,1e-5 -5.61492,-1.35632 -7.52544,-4.06899 -1.35634,-1.9251 -2.0345,-4.47004 -2.0345,-7.63482 0,-3.61687 0.87505,-6.37328 2.62516,-8.26924 1.75009,-1.89592 4.03981,-2.8439 6.86915,-2.84392 1.80843,2e-5 3.29602,0.30629 4.46277,0.9188 1.1813,0.61256 2.2824,1.62616 3.30332,3.04081 l 0,-3.43458 m -8.37862,11.26629 c -2e-5,1.67719 0.3573,2.92414 1.07193,3.74085 0.71462,0.80214 1.6553,1.2032 2.82205,1.20319 1.10838,1e-5 2.03447,-0.41564 2.77828,-1.24694 0.75837,-0.84588 1.13755,-2.1147 1.13757,-3.80648 -2e-5,-1.69175 -0.39379,-2.98245 -1.18132,-3.8721 -0.78756,-0.90421 -1.75012,-1.35632 -2.88767,-1.35633 -1.13758,1e-5 -2.04909,0.41566 -2.73454,1.24695 -0.67088,0.81673 -1.00632,2.18035 -1.0063,4.09086"
           style="text-align:start;writing-mode:lr-tb;text-anchor:start;font-family:Arial Black;-inkscape-font-specification:'Arial Black,';fill:#000"
           id="path4260"
           inkscape:connector-curvature="0" />
        <path
           d="m 458.38397,-145.71366 -8.50988,-0.89693 c 0.32085,-1.48757 0.78025,-2.65431 1.37821,-3.50021 0.61253,-0.86045 1.48758,-1.60424 2.62515,-2.23138 0.81671,-0.45209 1.93969,-0.80211 3.36895,-1.05006 1.42924,-0.24791 2.97517,-0.37188 4.63778,-0.3719 2.66889,2e-5 4.81276,0.15316 6.43163,0.4594 1.61882,0.29171 2.96786,0.91154 4.04711,1.85949 0.75835,0.65631 1.35631,1.58969 1.79386,2.80016 0.4375,1.19592 0.65626,2.34078 0.65629,3.43458 l 0,10.25998 c -3e-5,1.09382 0.0656,1.95429 0.19688,2.58141 0.14582,0.61253 0.45208,1.40008 0.91881,2.36264 l -8.35675,0 c -0.33545,-0.59796 -0.55422,-1.05007 -0.65629,-1.35634 -0.1021,-0.32085 -0.20419,-0.81671 -0.30626,-1.48758 -1.16676,1.12298 -2.3262,1.92511 -3.47834,2.40639 -1.5751,0.6417 -3.40542,0.96256 -5.49094,0.96256 -2.77101,0 -4.87842,-0.64171 -6.32225,-1.92512 -1.42926,-1.2834 -2.14388,-2.86579 -2.14388,-4.74715 0,-1.76468 0.51774,-3.21581 1.55322,-4.35339 1.03547,-1.13755 2.946,-1.98343 5.73159,-2.53765 3.33976,-0.67086 5.50551,-1.13755 6.49725,-1.40008 0.99171,-0.27708 2.04177,-0.6344 3.15019,-1.07194 -2e-5,-1.0938 -0.22607,-1.85947 -0.67816,-2.29701 -0.45213,-0.43751 -1.24697,-0.65627 -2.38452,-0.65629 -1.45843,2e-5 -2.55225,0.23337 -3.28144,0.70004 -0.5688,0.36463 -1.0282,1.05008 -1.37821,2.05638 m 7.72233,4.68152 c -1.22509,0.43754 -2.5012,0.82402 -3.82835,1.15945 -1.80845,0.48128 -2.95331,0.95527 -3.43458,1.42196 -0.49587,0.48128 -0.7438,1.02819 -0.74379,1.64072 -10e-6,0.70005 0.24063,1.27612 0.72191,1.72822 0.49586,0.43754 1.21777,0.6563 2.16576,0.65629 0.99171,1e-5 1.91051,-0.24063 2.75641,-0.72191 0.86045,-0.48128 1.4657,-1.06464 1.81573,-1.75011 0.36459,-0.70003 0.54689,-1.60425 0.54691,-2.71266 l 0,-1.42196"
           style="text-align:start;writing-mode:lr-tb;text-anchor:start;font-family:Arial Black;-inkscape-font-specification:'Arial Black,';fill:#000"
           id="path4262"
           inkscape:connector-curvature="0" />
        <path
           d="m 480.19468,-153.23911 8.29112,0 0,3.7846 c 1.23964,-1.5459 2.49388,-2.64701 3.76272,-3.30332 1.26881,-0.67085 2.81473,-1.00629 4.63778,-1.00631 2.4647,2e-5 4.38981,0.73652 5.77534,2.20951 1.40005,1.45843 2.10009,3.71898 2.10012,6.78165 l 0,14.7665 -8.9474,0 0,-12.77576 c -2e-5,-1.45841 -0.26983,-2.48659 -0.80943,-3.08456 -0.53963,-0.61252 -1.29801,-0.91879 -2.27513,-0.9188 -1.07925,10e-6 -1.9543,0.40837 -2.62516,1.22507 -0.67088,0.81673 -1.00632,2.28244 -1.00631,4.39713 l 0,11.15692 -8.90365,0 0,-23.23263"
           style="text-align:start;writing-mode:lr-tb;text-anchor:start;font-family:Arial Black;-inkscape-font-specification:'Arial Black,';fill:#000"
           id="path4264"
           inkscape:connector-curvature="0" />
        <path
           d="m 510.44959,-162.07713 8.90365,0 0,6.05973 -8.90365,0 0,-6.05973 m 0,8.83802 8.90365,0 0,23.23263 -8.90365,0 0,-23.23263"
           style="text-align:start;writing-mode:lr-tb;text-anchor:start;font-family:Arial Black;-inkscape-font-specification:'Arial Black,';fill:#000"
           id="path4266"
           inkscape:connector-curvature="0" />
        <path
           d="m 524.07851,-153.23911 21.54815,0 0,5.20656 -11.72569,11.94446 12.44761,0 0,6.08161 -23.14512,0 0,-5.77535 11.11316,-11.37567 -10.23811,0 0,-6.08161"
           style="text-align:start;writing-mode:lr-tb;text-anchor:start;font-family:Arial Black;-inkscape-font-specification:'Arial Black,';fill:#000"
           id="path4268"
           inkscape:connector-curvature="0" />
        <path
           d="m 575.42214,-139.41329 -17.85106,0 c 0.16042,1.42926 0.5469,2.4939 1.15944,3.19394 0.86046,1.00631 1.98344,1.50947 3.36895,1.50946 0.87504,1e-5 1.70634,-0.21876 2.4939,-0.65629 0.48126,-0.27709 0.999,-0.76566 1.55322,-1.46571 l 8.77239,0.80942 c -1.34177,2.33348 -2.96062,4.01066 -4.85654,5.03155 -1.89596,1.00631 -4.61591,1.50947 -8.15985,1.50947 -3.07728,0 -5.49825,-0.43024 -7.26293,-1.29071 -1.7647,-0.87505 -3.23041,-2.25325 -4.39714,-4.13461 -1.15215,-1.89594 -1.72823,-4.12003 -1.72823,-6.67227 0,-3.63145 1.15945,-6.57017 3.47834,-8.81615 2.33346,-2.24594 5.54927,-3.36893 9.64744,-3.36895 3.32518,2e-5 5.95033,0.50318 7.87547,1.50946 1.92509,1.00633 3.3908,2.46475 4.39713,4.37526 1.00628,1.91055 1.50944,4.39715 1.50947,7.45982 l 0,1.00631 m -9.05679,-4.26588 c -0.17503,-1.72092 -0.64172,-2.95328 -1.40008,-3.69709 -0.74381,-0.74378 -1.72825,-1.11568 -2.9533,-1.11569 -1.41468,1e-5 -2.54496,0.56151 -3.39083,1.68447 -0.53962,0.70006 -0.88235,1.74283 -1.02818,3.12831 l 8.77239,0"
           style="text-align:start;writing-mode:lr-tb;text-anchor:start;font-family:Arial Black;-inkscape-font-specification:'Arial Black,';fill:#000"
           id="path4270"
           inkscape:connector-curvature="0" />
        <path
           d="m 604.05826,-162.07713 0,32.07065 -8.33486,0 0,-3.43458 c -1.16676,1.45842 -2.2314,2.44285 -3.19394,2.9533 -1.28343,0.67087 -2.71268,1.00631 -4.28776,1.00631 -3.16478,0 -5.58575,-1.2032 -7.26293,-3.60959 -1.6626,-2.40639 -2.4939,-5.33052 -2.49389,-8.7724 -10e-6,-3.85021 0.9188,-6.79621 2.75641,-8.83802 1.85219,-2.04176 4.20024,-3.06266 7.04417,-3.06268 1.38548,2e-5 2.63972,0.23337 3.76272,0.70004 1.13755,0.46672 2.14386,1.16676 3.01893,2.10013 l 0,-11.11316 8.99115,0 m -8.92552,20.3887 c -2e-5,-1.82301 -0.3865,-3.17934 -1.15945,-4.06899 -0.77298,-0.9042 -1.75012,-1.35631 -2.93142,-1.35633 -1.03549,2e-5 -1.90325,0.43025 -2.60328,1.2907 -0.70005,0.86049 -1.05007,2.30432 -1.05006,4.33151 -10e-6,1.89596 0.3573,3.28874 1.07194,4.17837 0.72919,0.87506 1.62612,1.31259 2.69078,1.31258 1.13755,10e-6 2.08552,-0.44481 2.84392,-1.33445 0.75836,-0.88963 1.13755,-2.34076 1.13757,-4.35339"
           style="text-align:start;writing-mode:lr-tb;text-anchor:start;font-family:Arial Black;-inkscape-font-specification:'Arial Black,';fill:#000"
           id="path4272"
           inkscape:connector-curvature="0" />
        <path
           d="m 622.8281,-162.07713 30.12366,0 0,7.91922 -10.10685,0 0,24.15143 -9.90996,0 0,-24.15143 -10.10685,0 0,-7.91922"
           style="text-align:start;writing-mode:lr-tb;text-anchor:start;font-family:Arial Black;-inkscape-font-specification:'Arial Black,';fill:#000"
           id="path4274"
           inkscape:connector-curvature="0" />
        <path
           d="m 657.43638,-162.07713 26.55782,0 0,6.84728 -16.62598,0 0,5.09717 15.42278,0 0,6.54102 -15.42278,0 0,6.32225 17.10726,0 0,7.26293 -27.0391,0 0,-32.07065"
           style="text-align:start;writing-mode:lr-tb;text-anchor:start;font-family:Arial Black;-inkscape-font-specification:'Arial Black,';fill:#000"
           id="path4276"
           inkscape:connector-curvature="0" />
        <path
           d="m 689.96647,-162.07713 14.72274,0 c 2.90224,3e-5 5.243,0.3938 7.02229,1.18132 1.79383,0.78757 3.27413,1.91785 4.44089,3.39082 1.16671,1.47303 2.01259,3.18667 2.53765,5.14093 0.525,1.95431 0.78751,4.02526 0.78755,6.21287 -4e-5,3.4273 -0.39381,6.08891 -1.18132,7.98485 -0.773,1.88136 -1.85223,3.46375 -3.23769,4.74715 -1.38553,1.26883 -2.87312,2.11471 -4.46277,2.53765 -2.17307,0.58337 -4.14193,0.87506 -5.9066,0.87506 l -14.72274,0 0,-32.07065 m 9.90996,7.26293 0,17.52291 2.42827,0 c 2.07093,1e-5 3.54394,-0.22605 4.41901,-0.67817 0.87503,-0.46668 1.56048,-1.26881 2.05637,-2.40639 0.49584,-1.15214 0.74377,-3.01162 0.74379,-5.57845 -2e-5,-3.3981 -0.55422,-5.72428 -1.6626,-6.97854 -1.10841,-1.25422 -2.94602,-1.88134 -5.51282,-1.88136 l -2.47202,0"
           style="text-align:start;writing-mode:lr-tb;text-anchor:start;font-family:Arial Black;-inkscape-font-specification:'Arial Black,';fill:#000"
           id="path4278"
           inkscape:connector-curvature="0" />
        <path
           d="m 764.8271,-139.41329 -17.85105,0 c 0.16041,1.42926 0.54689,2.4939 1.15944,3.19394 0.86046,1.00631 1.98344,1.50947 3.36895,1.50946 0.87504,1e-5 1.70634,-0.21876 2.4939,-0.65629 0.48126,-0.27709 0.999,-0.76566 1.55322,-1.46571 l 8.77239,0.80942 c -1.34177,2.33348 -2.96062,4.01066 -4.85654,5.03155 -1.89596,1.00631 -4.61591,1.50947 -8.15986,1.50947 -3.07727,0 -5.49825,-0.43024 -7.26292,-1.29071 -1.7647,-0.87505 -3.23041,-2.25325 -4.39714,-4.13461 -1.15215,-1.89594 -1.72823,-4.12003 -1.72823,-6.67227 0,-3.63145 1.15944,-6.57017 3.47833,-8.81615 2.33347,-2.24594 5.54928,-3.36893 9.64745,-3.36895 3.32518,2e-5 5.95033,0.50318 7.87547,1.50946 1.92508,1.00633 3.39079,2.46475 4.39713,4.37526 1.00628,1.91055 1.50944,4.39715 1.50946,7.45982 l 0,1.00631 m -9.05678,-4.26588 c -0.17503,-1.72092 -0.64172,-2.95328 -1.40008,-3.69709 -0.74382,-0.74378 -1.72825,-1.11568 -2.9533,-1.11569 -1.41468,1e-5 -2.54496,0.56151 -3.39083,1.68447 -0.53963,0.70006 -0.88235,1.74283 -1.02819,3.12831 l 8.7724,0"
           style="text-align:start;writing-mode:lr-tb;text-anchor:start;font-family:Arial Black;-inkscape-font-specification:'Arial Black,';fill:#000"
           id="path4280"
           inkscape:connector-curvature="0" />
        <path
           d="m 765.22087,-153.23911 9.27555,0 4.50651,14.72275 4.65965,-14.72275 8.99116,0 -9.86621,23.23263 -7.89734,0 -9.66932,-23.23263"
           style="text-align:start;writing-mode:lr-tb;text-anchor:start;font-family:Arial Black;-inkscape-font-specification:'Arial Black,';fill:#000"
           id="path4282"
           inkscape:connector-curvature="0" />
        <path
           d="m 819.91164,-139.41329 -17.85106,0 c 0.16042,1.42926 0.5469,2.4939 1.15945,3.19394 0.86045,1.00631 1.98343,1.50947 3.36895,1.50946 0.87503,1e-5 1.70633,-0.21876 2.49389,-0.65629 0.48126,-0.27709 0.999,-0.76566 1.55322,-1.46571 l 8.77239,0.80942 c -1.34177,2.33348 -2.96061,4.01066 -4.85653,5.03155 -1.89597,1.00631 -4.61592,1.50947 -8.15986,1.50947 -3.07728,0 -5.49825,-0.43024 -7.26293,-1.29071 -1.76469,-0.87505 -3.23041,-2.25325 -4.39714,-4.13461 -1.15215,-1.89594 -1.72823,-4.12003 -1.72822,-6.67227 -10e-6,-3.63145 1.15944,-6.57017 3.47833,-8.81615 2.33346,-2.24594 5.54927,-3.36893 9.64744,-3.36895 3.32518,2e-5 5.95033,0.50318 7.87547,1.50946 1.92509,1.00633 3.3908,2.46475 4.39713,4.37526 1.00629,1.91055 1.50944,4.39715 1.50947,7.45982 l 0,1.00631 m -9.05679,-4.26588 c -0.17503,-1.72092 -0.64172,-2.95328 -1.40008,-3.69709 -0.74381,-0.74378 -1.72824,-1.11568 -2.9533,-1.11569 -1.41468,1e-5 -2.54495,0.56151 -3.39083,1.68447 -0.53962,0.70006 -0.88235,1.74283 -1.02818,3.12831 l 8.77239,0"
           style="text-align:start;writing-mode:lr-tb;text-anchor:start;font-family:Arial Black;-inkscape-font-specification:'Arial Black,';fill:#000"
           id="path4284"
           inkscape:connector-curvature="0" />
        <path
           d="m 824.09001,-153.23911 8.29111,0 0,3.7846 c 1.23965,-1.5459 2.49389,-2.64701 3.76273,-3.30332 1.2688,-0.67085 2.81473,-1.00629 4.63777,-1.00631 2.46471,2e-5 4.38982,0.73652 5.77534,2.20951 1.40006,1.45843 2.1001,3.71898 2.10013,6.78165 l 0,14.7665 -8.94741,0 0,-12.77576 c -2e-5,-1.45841 -0.26982,-2.48659 -0.80942,-3.08456 -0.53963,-0.61252 -1.29801,-0.91879 -2.27514,-0.9188 -1.07924,10e-6 -1.95429,0.40837 -2.62515,1.22507 -0.67089,0.81673 -1.00632,2.28244 -1.00631,4.39713 l 0,11.15692 -8.90365,0 0,-23.23263"
           style="text-align:start;writing-mode:lr-tb;text-anchor:start;font-family:Arial Black;-inkscape-font-specification:'Arial Black,';fill:#000"
           id="path4286"
           inkscape:connector-curvature="0" />
        <path
           d="m 864.75803,-162.07713 0,8.83802 4.90029,0 0,6.49726 -4.90029,0 0,8.24736 c -2e-5,0.99174 0.0948,1.64802 0.28439,1.96887 0.29167,0.49587 0.80211,0.7438 1.53134,0.74379 0.65627,1e-5 1.57507,-0.18959 2.75641,-0.56878 l 0.65629,6.14724 c -2.20223,0.48128 -4.2586,0.72192 -6.16911,0.72192 -2.21681,0 -3.85024,-0.2844 -4.90029,-0.85318 -1.05007,-0.56878 -1.83033,-1.42925 -2.34077,-2.5814 -0.49587,-1.16673 -0.7438,-3.04809 -0.74379,-5.64409 l 0,-8.18173 -3.28145,0 0,-6.49726 3.28145,0 0,-4.26588 8.92553,-4.57214"
           style="text-align:start;writing-mode:lr-tb;text-anchor:start;font-family:Arial Black;-inkscape-font-specification:'Arial Black,';fill:#000"
           id="path4288"
           inkscape:connector-curvature="0" />
      </g>
    </g>
    <path
       d="m 40.507231,990.86329 6.55942,-0.0275 3.93296,6.19103 4.90154,-6.19103 5.6673,0 -7.13258,11.03261 8.05256,11.9904 -6.83728,0 -4.65154,-7.1462 -4.47771,7.115 -7.02847,0 8.11696,-12.0476"
       style="font-size:40px;font-style:normal;font-variant:normal;font-weight:normal;font-stretch:normal;text-align:start;line-height:125%;letter-spacing:0px;word-spacing:0px;writing-mode:lr-tb;text-anchor:start;fill:#fd2c05;fill-opacity:1;stroke:none;font-family:Arial Black;-inkscape-font-specification:'Arial Black,'"
       id="path3828-0-4"
       inkscape:connector-curvature="0"
       sodipodi:nodetypes="cccccccccccc" />
    <path
       d="m 76.560158,994.85213 22.807941,0 0,5.57517 -22.807941,0 0,-5.57517 m 0,8.43997 22.807941,0 0,5.5579 -22.807941,0 0,-5.5579"
       style="font-size:40px;font-style:normal;font-variant:normal;font-weight:normal;font-stretch:normal;text-align:start;line-height:125%;letter-spacing:0px;word-spacing:0px;writing-mode:lr-tb;text-anchor:start;fill:#000;fill-opacity:1;stroke:none;font-family:Arial Black;-inkscape-font-specification:'Arial Black,'"
       id="path3830-0-9"
       inkscape:connector-curvature="0" />
  </g>
</svg>
