<?xml version="1.0" encoding="UTF-8" standalone="no"?>
<!-- Created with Inkscape (http://www.inkscape.org/) -->

<svg
   xmlns:dc="http://purl.org/dc/elements/1.1/"
   xmlns:cc="http://creativecommons.org/ns#"
   xmlns:rdf="http://www.w3.org/1999/02/22-rdf-syntax-ns#"
   xmlns:svg="http://www.w3.org/2000/svg"
   xmlns="http://www.w3.org/2000/svg"
   xmlns:sodipodi="http://sodipodi.sourceforge.net/DTD/sodipodi-0.dtd"
   xmlns:inkscape="http://www.inkscape.org/namespaces/inkscape"
   width="860"
   height="240"
   id="svg4613"
   version="1.1"
   inkscape:version="0.92.0 r15299"
   sodipodi:docname="TEDxUMSA1.svg">
  <defs
     id="defs4615" />
  <sodipodi:namedview
     id="base"
     pagecolor="#ffffff"
     bordercolor="#666666"
     borderopacity="1.0"
     inkscape:pageopacity="0.0"
     inkscape:pageshadow="2"
     inkscape:zoom="0.7"
     inkscape:cx="387.56581"
     inkscape:cy="106.33255"
     inkscape:document-units="px"
     inkscape:current-layer="layer1"
     showgrid="false"
     inkscape:window-width="1366"
     inkscape:window-height="712"
     inkscape:window-x="0"
     inkscape:window-y="27"
     inkscape:window-maximized="1" />
  <metadata
     id="metadata4618">
    <rdf:RDF>
      <cc:Work
         rdf:about="">
        <dc:format>image/svg+xml</dc:format>
        <dc:type
           rdf:resource="http://purl.org/dc/dcmitype/StillImage" />
        <dc:title />
      </cc:Work>
    </rdf:RDF>
  </metadata>
  <g
     inkscape:label="Capa 1"
     inkscape:groupmode="layer"
     id="layer1"
     transform="translate(0,-812.36218)">
    <g
       id="g4793"
       transform="matrix(0.5280855,0,0,0.7167341,189.55953,262.27317)">
      <g
         transform="translate(-15.527426,520.83169)"
         id="g4530">
        <g
           transform="translate(23.897393,288.85347)"
           style="font-style:normal;font-variant:normal;font-weight:normal;font-stretch:normal;font-size:128.09225464px;line-height:125%;font-family:'Arial Black';-inkscape-font-specification:'Arial Black,';text-align:start;letter-spacing:0px;word-spacing:0px;writing-mode:lr-tb;text-anchor:start;fill:#fd2c05;fill-opacity:1;stroke:none"
           id="text3013-9">
          <path
             d="m 31.255228,30.197276 h 92.748682 l -0.004,28.743847 -30.004001,0.0221 0.0221,78.063577 h -34.01898 l 0.0098,-78.051337 -28.753681,0.02329 V 30.19728"
             id="path3018-5"
             inkscape:connector-curvature="0"
             sodipodi:nodetypes="ccccccccc"
             style="fill:#fd2c05;fill-opacity:1" />
          <path
             d="m 128.08017,30.197276 h 89.92828 v 28.600815 l -57.03323,0.1875 v 12.0423 l 57.00353,0.226714 -0.0221,25.708897 -56.98143,0.05653 v 11.887948 l 57.03628,0.0625 -0.0221,28.04283 H 128.08017 V 30.197272"
             id="path3020-1"
             inkscape:connector-curvature="0"
             sodipodi:nodetypes="ccccccccccccc"
             style="fill:#fd2c05;fill-opacity:1" />
          <path
             d="m 222.00285,30.056651 53.44397,0.140625 c 9.65736,1.06e-4 17.44638,1.31041 23.3671,3.930914 5.96907,2.620711 10.89484,6.381767 14.77733,11.283181 3.88228,4.901598 6.697,10.603845 8.44419,17.106759 1.74696,6.503063 2.62049,13.39429 2.62061,20.6737 -1.2e-4,11.404548 -1.31042,20.26123 -3.93093,26.57007 -2.57217,6.26037 -6.16337,11.52585 -10.77361,15.79646 -4.61043,4.22209 -9.56046,7.03682 -14.85012,8.44418 -7.23101,1.9412 -17.03253,2.91179 -22.90457,2.91179 h -50.17835 m 34.16351,-27.68779 h 8.08022 c 6.89117,0 11.79267,-0.75218 14.70452,-2.25664 2.91173,-1.55292 5.19262,-4.22206 6.84271,-8.007406 1.64993,-3.833821 2.47495,-6.574219 2.47502,-15.11551 -7e-5,-11.307383 -1.66743,-14.716851 -5.35562,-18.890487 -3.68833,-4.173484 -9.80309,-6.260346 -18.34426,-6.260346 h -8.22581"
             id="path3022-1"
             inkscape:connector-curvature="0"
             sodipodi:nodetypes="cccccccccsccsccccsc"
             style="fill:#fd2c05;fill-opacity:1" />
        </g>
        <g
           transform="matrix(0.90666606,0,0,1.1029419,23.897393,288.85347)"
           style="font-style:normal;font-variant:normal;font-weight:normal;font-stretch:normal;font-size:115.54692078px;line-height:125%;font-family:'Liberation Serif';-inkscape-font-specification:'Liberation Serif';letter-spacing:0px;word-spacing:0px;fill:#fd2c05;fill-opacity:1;stroke:none"
           id="text3024-0">
          <path
             d="m 387.9737,27.19287 10.22422,13.78181 10.12759,-13.78181 h 26.91779 l -23.87051,29.511547 24.37233,30.405851 h -26.45454 l -11.2024,-14.647387 -10.74193,14.59072 -26.67228,-0.02347 24.56706,-30.32738 -23.49251,-29.509879"
             style="font-family:'Arial Black';-inkscape-font-specification:'Arial Black,';text-align:start;writing-mode:lr-tb;text-anchor:start;fill:#fd2c05;fill-opacity:1"
             id="path3029-5"
             inkscape:connector-curvature="0"
             sodipodi:nodetypes="cccccccccccc" />
        </g>
        <g
           style="font-style:normal;font-variant:normal;font-weight:normal;font-stretch:normal;font-size:40px;line-height:125%;font-family:'Liberation Serif';-inkscape-font-specification:'Liberation Serif';letter-spacing:0px;word-spacing:0px;fill:#000000;fill-opacity:1;stroke:none"
           id="text3031-2"
           transform="matrix(3.5859362,0,0,3.5859362,739.59999,22.172651)">
          <path
             d="m -66.290395,83.032275 h 3.92463 l -0.09859,17.528915 c -0.01619,2.87757 -0.325547,5.16277 -0.976563,6.85547 -0.651066,1.69271 -1.82945,3.07292 -3.535156,4.14062 -1.692728,1.05469 -3.919288,1.58203 -6.679688,1.58203 -2.682303,0 -4.883936,-0.46224 -6.589656,-1.38672 -1.705735,-0.92447 -2.923182,-2.25911 -3.652344,-4.0039 -0.72917,-1.75781 -1.031912,-5.1398 -0.995156,-8.173446 l 0.200436,-16.561488 3.624575,0.03268 -0.0011,17.825174 c -1.57e-4,2.54831 0.242684,4.30826 0.648736,5.48168 0.468742,1.17188 1.263012,2.07683 2.382812,2.71484 1.132801,0.63803 2.513008,0.95704 4.140625,0.95703 2.786442,1e-5 4.779742,-0.6315 5.964656,-1.89453 1.184875,-1.26301 1.61244,-3.60832 1.641777,-7.20197"
             style="font-family:Arial;-inkscape-font-specification:Arial;text-align:start;writing-mode:lr-tb;text-anchor:start;fill:#000000"
             id="path3036-8"
             inkscape:connector-curvature="0"
             sodipodi:nodetypes="ccsccsscsccsccssc" />
          <path
             d="m -55.96646,112.2848 0.01232,-29.285994 4.754154,0.01232 c 2.971896,8.3083 6.099324,17.318614 8.674476,25.719504 2.592728,-7.8835 5.731061,-17.412044 8.588526,-25.715788 l 4.740358,-0.0087 -0.0044,29.290758 -3.338618,-0.004 -0.006,-24.830564 -8.087752,24.835194 -3.619779,-0.002 -8.388755,-24.656427 0.01969,24.652297"
             style="font-family:Arial;-inkscape-font-specification:Arial;text-align:start;writing-mode:lr-tb;text-anchor:start;fill:#000000"
             id="path3038-7"
             inkscape:connector-curvature="0"
             sodipodi:nodetypes="ccccccccccccc" />
          <path
             d="m -23.612582,103.10859 3.320001,-0.007 c 0.169265,1.4694 0.668512,3.07407 1.280497,4.02248 0.624993,0.93507 1.588533,1.76619 2.890625,2.35394 1.302072,0.5744 2.976066,0.72218 4.603682,0.72218 1.445297,0 2.6516207,-0.63871 3.7584081,-1.07954 1.1067521,-0.44081 1.9270638,-1.04192 2.4609375,-1.80334 0.5468543,-0.77476 0.8202916,-1.61631 0.8203125,-2.52467 -2.09e-5,-0.92169 -0.2604373,-1.72318 -0.78125,-2.40446 -0.520853,-0.6946 -1.3802271,-1.27567 -2.578125,-1.74322 -0.768246,-0.30722 -2.4674631,-0.781437 -5.0976561,-1.422636 -2.630218,-0.654532 -4.890965,-1.269003 -5.945645,-1.843415 -1.367193,-0.734677 -2.389327,-1.643026 -3.066406,-2.725047 -0.664066,-1.095343 -0.996097,-2.317605 -0.996094,-3.666791 -3e-6,-1.482723 0.410153,-2.865283 1.230469,-4.147682 0.820307,-1.295706 2.436524,-2.277523 4.012051,-2.945455 1.575511,-0.667874 3.326812,-1.001826 5.253906,-1.001856 2.122381,3e-5 3.9908686,0.354019 5.6054689,1.061967 1.6275839,0.694648 2.8775827,1.723218 3.75,3.085715 0.8723726,1.362548 1.3411221,2.905404 1.40625,4.628573 l -3.6328125,0.280519 c -0.1953324,-1.85675 -0.8593943,-3.259346 -1.9921875,-4.207793 -1.1198087,-0.948397 -2.7799629,-1.422608 -4.9804689,-1.422635 -2.291677,2.7e-5 -4.522587,0.573597 -5.577265,1.441846 -1.041674,0.854941 -1.562507,1.890191 -1.5625,3.105753 -7e-6,1.055308 0.371087,1.923582 1.113281,2.604823 0.729158,0.681281 3.187932,1.243145 6.260859,1.964464 3.0859212,0.707994 5.2018045,1.329144 6.3476564,1.863451 1.6666452,0.78814 2.8971128,1.789995 3.6914062,3.005569 0.7942466,1.20223 1.19138166,2.59148 1.19140625,4.16771 -2.459e-5,1.56291 -0.43622205,3.03897 -1.30859375,4.42821 -0.8724182,1.37588 -2.1289274,2.4512 -3.7695312,3.22597 -1.6276221,0.76141 -3.4635578,1.14211 -5.5078129,1.14211 -2.591157,0 -4.765634,-0.17787 -6.523437,-0.95264 -1.744798,-0.77477 -3.118494,-1.93691 -4.121094,-3.48645 -0.989586,-1.56289 -1.504256,-3.56648 -1.556338,-5.53012"
             style="font-family:Arial;-inkscape-font-specification:Arial;text-align:start;writing-mode:lr-tb;text-anchor:start;fill:#000000"
             id="path3040-0"
             inkscape:connector-curvature="0"
             sodipodi:nodetypes="ccccsscccccccsccccccccccccccccccsccc" />
          <path
             d="m 2.0394551,112.29097 10.2011759,-29.267516 4.581165,-0.0062 10.033763,29.278326 -3.901795,-0.003 -2.793003,-8.92242 H 8.7262317 l -3.0660998,8.92242 m 3.8809826,-11.98439 h 9.5675975 l -2.883706,-7.981976 c -0.911472,-2.408832 -1.348231,-3.8827 -1.790926,-5.432203 -0.364596,1.835961 -1.119242,3.153579 -1.783293,4.963453"
             style="font-family:Arial;-inkscape-font-specification:Arial;text-align:start;writing-mode:lr-tb;text-anchor:start;fill:#000000"
             id="path3042-2"
             inkscape:connector-curvature="0"
             sodipodi:nodetypes="ccccccccccccc" />
        </g>
      </g>
      <g
         transform="translate(-14.035871,420.42253)"
         id="g4494">
        <g
           style="font-style:normal;font-variant:normal;font-weight:normal;font-stretch:normal;font-size:40px;line-height:125%;font-family:'Liberation Serif';-inkscape-font-specification:'Liberation Serif';letter-spacing:0px;word-spacing:0px;fill:#000000;fill-opacity:1;stroke:none"
           id="text3823-1"
           transform="matrix(0.74703895,0,0,1.0979087,123.52605,722.77417)">
          <g
             transform="scale(1.0940165,0.91406301)"
             style="font-size:44.80265045px;font-family:'Liberation Serif';-inkscape-font-specification:'Liberation Serif';fill:#000000"
             id="text4221">
            <path
               d="m 7.2947922,-162.07713 h 8.9036518 v 6.05973 H 7.2947922 v -6.05973 m 0,8.83802 h 8.9036518 v 23.23263 H 7.2947922 v -23.23263"
               style="font-family:'Arial Black';-inkscape-font-specification:'Arial Black,';text-align:start;writing-mode:lr-tb;text-anchor:start"
               id="path4230"
               inkscape:connector-curvature="0" />
            <path
               d="m 21.930034,-153.23911 h 8.291116 v 3.7846 c 1.239644,-1.5459 2.493884,-2.64701 3.762722,-3.30332 1.268809,-0.67085 2.814733,-1.00629 4.637775,-1.00631 2.464707,2e-5 4.389819,0.73652 5.775341,2.20951 1.400057,1.45843 2.100097,3.71898 2.100125,6.78165 v 14.7665 h -8.947405 v -12.77576 c -1.8e-5,-1.45841 -0.269825,-2.48659 -0.809422,-3.08456 -0.539633,-0.61252 -1.29801,-0.91879 -2.275135,-0.9188 -1.079245,10e-6 -1.954296,0.40837 -2.625155,1.22507 -0.670885,0.81673 -1.006322,2.28244 -1.00631,4.39713 v 11.15692 h -8.903652 v -23.23263"
               style="font-family:'Arial Black';-inkscape-font-specification:'Arial Black,';text-align:start;writing-mode:lr-tb;text-anchor:start"
               id="path4232"
               inkscape:connector-curvature="0" />
            <path
               d="m 76.314504,-162.07713 v 32.07065 h -8.334868 v -3.43458 c -1.166753,1.45842 -2.231398,2.44285 -3.193939,2.9533 -1.283423,0.67087 -2.712673,1.00631 -4.287753,1.00631 -3.164779,0 -5.585753,-1.2032 -7.26293,-3.60959 -1.662601,-2.40639 -2.493899,-5.33052 -2.493898,-8.7724 -10e-7,-3.85021 0.918802,-6.79621 2.756413,-8.83802 1.852187,-2.04176 4.20024,-3.06266 7.044167,-3.06268 1.385486,2e-5 2.639726,0.23337 3.762723,0.70004 1.137551,0.46672 2.143859,1.16676 3.018928,2.10013 v -11.11316 h 8.991157 m -8.925528,20.3887 c -1.8e-5,-1.82301 -0.386499,-3.17934 -1.159443,-4.06899 -0.772979,-0.9042 -1.750119,-1.35631 -2.931424,-1.35633 -1.035491,2e-5 -1.90325,0.43025 -2.603279,1.2907 -0.700052,0.86049 -1.050072,2.30432 -1.050062,4.33151 -10e-6,1.89596 0.357302,3.28874 1.071939,4.17837 0.729197,0.87506 1.626124,1.31259 2.690784,1.31258 1.137552,10e-6 2.085523,-0.44481 2.843918,-1.33445 0.75836,-0.88963 1.137549,-2.34076 1.137567,-4.35339"
               style="font-family:'Arial Black';-inkscape-font-specification:'Arial Black,';text-align:start;writing-mode:lr-tb;text-anchor:start"
               id="path4234"
               inkscape:connector-curvature="0" />
            <path
               d="M 107.57573,-139.41329 H 89.724675 c 0.160416,1.42926 0.546896,2.4939 1.159444,3.19394 0.860455,1.00631 1.983437,1.50947 3.368949,1.50946 0.875036,1e-5 1.706334,-0.21876 2.493898,-0.65629 0.48126,-0.27709 0.998998,-0.76566 1.553217,-1.46571 l 8.772397,0.80942 c -1.34178,2.33348 -2.96062,4.01066 -4.85654,5.03155 -1.89597,1.00631 -4.615917,1.50947 -8.159858,1.50947 -3.077278,0 -5.498252,-0.43024 -7.26293,-1.29071 -1.764694,-0.87505 -3.230404,-2.25325 -4.397135,-4.13461 -1.152154,-1.89594 -1.728229,-4.12003 -1.728227,-6.67227 -2e-6,-3.63145 1.15944,-6.57017 3.47833,-8.81615 2.333464,-2.24594 5.549276,-3.36893 9.647446,-3.36895 3.325179,2e-5 5.950331,0.50318 7.875464,1.50946 1.92509,1.00633 3.3908,2.46475 4.39714,4.37526 1.00628,1.91055 1.50943,4.39715 1.50946,7.45982 v 1.00631 m -9.056784,-4.26588 c -0.17503,-1.72092 -0.641724,-2.95328 -1.400083,-3.69709 -0.743812,-0.74378 -1.728244,-1.11568 -2.9533,-1.11569 -1.414681,1e-5 -2.544955,0.56151 -3.390826,1.68447 -0.539626,0.70006 -0.882354,1.74283 -1.028185,3.12831 h 8.772394"
               style="font-family:'Arial Black';-inkscape-font-specification:'Arial Black,';text-align:start;writing-mode:lr-tb;text-anchor:start"
               id="path4236"
               inkscape:connector-curvature="0" />
            <path
               d="m 111.75411,-121.16846 v -32.07065 h 8.33486 v 3.43458 c 1.15214,-1.44382 2.2095,-2.42096 3.17207,-2.93142 1.29797,-0.68544 2.73452,-1.02817 4.30963,-1.02819 3.10641,2e-5 5.50551,1.18863 7.1973,3.56584 1.70632,2.37724 2.5595,5.31595 2.55952,8.81614 -2e-5,3.86482 -0.92612,6.81812 -2.77829,8.8599 -1.85221,2.0272 -4.19297,3.04081 -7.02229,3.04081 -1.37093,0 -2.62517,-0.23335 -3.76272,-0.70005 -1.123,-0.46669 -2.1293,-1.15944 -3.01893,-2.07824 v 11.09128 h -8.99115 m 8.92552,-20.38871 c -1e-5,1.83762 0.38647,3.20124 1.15945,4.09087 0.77295,0.88964 1.75009,1.33446 2.93142,1.33445 1.03546,10e-6 1.90322,-0.42293 2.60328,-1.26882 0.70002,-0.86046 1.05004,-2.31159 1.05006,-4.35338 -2e-5,-1.88135 -0.36462,-3.25956 -1.09381,-4.13462 -0.72923,-0.88962 -1.61886,-1.33444 -2.66891,-1.33446 -1.13758,2e-5 -2.08555,0.44484 -2.84392,1.33446 -0.75839,0.88965 -1.13758,2.33348 -1.13757,4.3315"
               style="font-family:'Arial Black';-inkscape-font-specification:'Arial Black,';text-align:start;writing-mode:lr-tb;text-anchor:start"
               id="path4238"
               inkscape:connector-curvature="0" />
            <path
               d="m 167.42928,-139.41329 h -17.85106 c 0.16042,1.42926 0.5469,2.4939 1.15945,3.19394 0.86045,1.00631 1.98343,1.50947 3.36894,1.50946 0.87504,1e-5 1.70634,-0.21876 2.4939,-0.65629 0.48126,-0.27709 0.999,-0.76566 1.55322,-1.46571 l 8.77239,0.80942 c -1.34177,2.33348 -2.96061,4.01066 -4.85653,5.03155 -1.89597,1.00631 -4.61592,1.50947 -8.15986,1.50947 -3.07728,0 -5.49825,-0.43024 -7.26293,-1.29071 -1.7647,-0.87505 -3.23041,-2.25325 -4.39714,-4.13461 -1.15215,-1.89594 -1.72823,-4.12003 -1.72822,-6.67227 -1e-5,-3.63145 1.15944,-6.57017 3.47833,-8.81615 2.33346,-2.24594 5.54927,-3.36893 9.64744,-3.36895 3.32518,2e-5 5.95033,0.50318 7.87547,1.50946 1.92509,1.00633 3.3908,2.46475 4.39713,4.37526 1.00628,1.91055 1.50944,4.39715 1.50947,7.45982 v 1.00631 m -9.05679,-4.26588 c -0.17503,-1.72092 -0.64172,-2.95328 -1.40008,-3.69709 -0.74381,-0.74378 -1.72824,-1.11568 -2.9533,-1.11569 -1.41468,1e-5 -2.54496,0.56151 -3.39083,1.68447 -0.53962,0.70006 -0.88235,1.74283 -1.02818,3.12831 h 8.77239"
               style="font-family:'Arial Black';-inkscape-font-specification:'Arial Black,';text-align:start;writing-mode:lr-tb;text-anchor:start"
               id="path4240"
               inkscape:connector-curvature="0" />
            <path
               d="m 171.56388,-153.23911 h 8.29112 v 3.7846 c 1.23964,-1.5459 2.49388,-2.64701 3.76272,-3.30332 1.26881,-0.67085 2.81473,-1.00629 4.63778,-1.00631 2.4647,2e-5 4.38982,0.73652 5.77534,2.20951 1.40005,1.45843 2.1001,3.71898 2.10012,6.78165 v 14.7665 h -8.9474 v -12.77576 c -2e-5,-1.45841 -0.26983,-2.48659 -0.80942,-3.08456 -0.53964,-0.61252 -1.29801,-0.91879 -2.27514,-0.9188 -1.07924,10e-6 -1.95429,0.40837 -2.62515,1.22507 -0.67089,0.81673 -1.00633,2.28244 -1.00631,4.39713 v 11.15692 h -8.90366 v -23.23263"
               style="font-family:'Arial Black';-inkscape-font-specification:'Arial Black,';text-align:start;writing-mode:lr-tb;text-anchor:start"
               id="path4242"
               inkscape:connector-curvature="0" />
            <path
               d="m 225.94837,-162.07713 v 32.07065 h -8.33487 v -3.43458 c -1.16675,1.45842 -2.2314,2.44285 -3.19394,2.9533 -1.28342,0.67087 -2.71267,1.00631 -4.28775,1.00631 -3.16478,0 -5.58575,-1.2032 -7.26293,-3.60959 -1.6626,-2.40639 -2.4939,-5.33052 -2.4939,-8.7724 0,-3.85021 0.9188,-6.79621 2.75641,-8.83802 1.85219,-2.04176 4.20024,-3.06266 7.04417,-3.06268 1.38549,2e-5 2.63973,0.23337 3.76272,0.70004 1.13756,0.46672 2.14386,1.16676 3.01893,2.10013 v -11.11316 h 8.99116 m -8.92553,20.3887 c -2e-5,-1.82301 -0.3865,-3.17934 -1.15944,-4.06899 -0.77298,-0.9042 -1.75012,-1.35631 -2.93143,-1.35633 -1.03549,2e-5 -1.90325,0.43025 -2.60327,1.2907 -0.70006,0.86049 -1.05008,2.30432 -1.05007,4.33151 -1e-5,1.89596 0.35731,3.28874 1.07194,4.17837 0.7292,0.87506 1.62613,1.31259 2.69079,1.31258 1.13755,10e-6 2.08552,-0.44481 2.84391,-1.33445 0.75836,-0.88963 1.13755,-2.34076 1.13757,-4.35339"
               style="font-family:'Arial Black';-inkscape-font-specification:'Arial Black,';text-align:start;writing-mode:lr-tb;text-anchor:start"
               id="path4244"
               inkscape:connector-curvature="0" />
            <path
               d="m 257.20958,-139.41329 h -17.85105 c 0.16041,1.42926 0.54689,2.4939 1.15944,3.19394 0.86045,1.00631 1.98344,1.50947 3.36895,1.50946 0.87503,1e-5 1.70633,-0.21876 2.4939,-0.65629 0.48126,-0.27709 0.99899,-0.76566 1.55321,-1.46571 l 8.7724,0.80942 c -1.34178,2.33348 -2.96062,4.01066 -4.85654,5.03155 -1.89597,1.00631 -4.61592,1.50947 -8.15986,1.50947 -3.07728,0 -5.49825,-0.43024 -7.26293,-1.29071 -1.76469,-0.87505 -3.2304,-2.25325 -4.39713,-4.13461 -1.15216,-1.89594 -1.72823,-4.12003 -1.72823,-6.67227 0,-3.63145 1.15944,-6.57017 3.47833,-8.81615 2.33346,-2.24594 5.54928,-3.36893 9.64745,-3.36895 3.32517,2e-5 5.95033,0.50318 7.87546,1.50946 1.92509,1.00633 3.3908,2.46475 4.39714,4.37526 1.00628,1.91055 1.50943,4.39715 1.50946,7.45982 v 1.00631 m -9.05678,-4.26588 c -0.17503,-1.72092 -0.64173,-2.95328 -1.40009,-3.69709 -0.74381,-0.74378 -1.72824,-1.11568 -2.9533,-1.11569 -1.41468,1e-5 -2.54495,0.56151 -3.39082,1.68447 -0.53963,0.70006 -0.88236,1.74283 -1.02819,3.12831 h 8.7724"
               style="font-family:'Arial Black';-inkscape-font-specification:'Arial Black,';text-align:start;writing-mode:lr-tb;text-anchor:start"
               id="path4246"
               inkscape:connector-curvature="0" />
            <path
               d="m 261.34422,-153.23911 h 8.29111 v 3.7846 c 1.23965,-1.5459 2.49389,-2.64701 3.76273,-3.30332 1.26881,-0.67085 2.81473,-1.00629 4.63777,-1.00631 2.46471,2e-5 4.38982,0.73652 5.77534,2.20951 1.40006,1.45843 2.1001,3.71898 2.10013,6.78165 v 14.7665 h -8.94741 v -12.77576 c -2e-5,-1.45841 -0.26982,-2.48659 -0.80942,-3.08456 -0.53963,-0.61252 -1.29801,-0.91879 -2.27513,-0.9188 -1.07925,10e-6 -1.9543,0.40837 -2.62516,1.22507 -0.67088,0.81673 -1.00632,2.28244 -1.00631,4.39713 v 11.15692 h -8.90365 v -23.23263"
               style="font-family:'Arial Black';-inkscape-font-specification:'Arial Black,';text-align:start;writing-mode:lr-tb;text-anchor:start"
               id="path4248"
               inkscape:connector-curvature="0" />
            <path
               d="m 302.01224,-162.07713 v 8.83802 h 4.90029 v 6.49726 h -4.90029 v 8.24736 c -2e-5,0.99174 0.0948,1.64802 0.28439,1.96887 0.29167,0.49587 0.80212,0.7438 1.53134,0.74379 0.65627,1e-5 1.57508,-0.18959 2.75641,-0.56878 l 0.65629,6.14724 c -2.20223,0.48128 -4.2586,0.72192 -6.16911,0.72192 -2.21681,0 -3.85024,-0.2844 -4.90029,-0.85318 -1.05007,-0.56878 -1.83033,-1.42925 -2.34077,-2.5814 -0.49586,-1.16673 -0.7438,-3.04809 -0.74379,-5.64409 v -8.18173 h -3.28144 v -6.49726 h 3.28144 v -4.26588 l 8.92553,-4.57214"
               style="font-family:'Arial Black';-inkscape-font-specification:'Arial Black,';text-align:start;writing-mode:lr-tb;text-anchor:start"
               id="path4250"
               inkscape:connector-curvature="0" />
            <path
               d="m 311.44092,-162.07713 h 8.92553 v 32.07065 h -8.92553 v -32.07065"
               style="font-family:'Arial Black';-inkscape-font-specification:'Arial Black,';text-align:start;writing-mode:lr-tb;text-anchor:start"
               id="path4252"
               inkscape:connector-curvature="0" />
            <path
               d="m 324.34793,-153.23911 h 9.40681 l 4.7909,15.46654 4.44089,-15.46654 h 8.7724 l -9.20992,24.82959 c -1.05008,2.82933 -2.12202,4.73986 -3.21582,5.73159 -1.54594,1.40008 -3.90128,2.10012 -7.06604,2.10013 -1.28342,-1e-5 -3.26687,-0.17502 -5.95035,-0.52503 l -0.70005,-6.21287 c 1.28341,0.40835 2.71266,0.61253 4.28776,0.61254 1.05005,-1e-5 1.89594,-0.24065 2.53765,-0.72192 0.65628,-0.48128 1.21048,-1.34175 1.6626,-2.5814 l -9.75683,-23.23263"
               style="font-family:'Arial Black';-inkscape-font-specification:'Arial Black,';text-align:start;writing-mode:lr-tb;text-anchor:start"
               id="path4254"
               inkscape:connector-curvature="0" />
            <path
               d="m 368.23179,-141.55717 c 0,-3.54394 1.1959,-6.46078 3.58771,-8.75052 2.3918,-2.30428 5.6222,-3.45643 9.6912,-3.45645 4.65234,2e-5 8.16713,1.34906 10.54437,4.04711 1.91051,2.17307 2.86577,4.84926 2.8658,8.0286 -3e-5,3.57314 -1.18864,6.50456 -3.56584,8.79427 -2.36266,2.27514 -5.63681,3.41271 -9.82245,3.41271 -3.73357,0 -6.7525,-0.94798 -9.05679,-2.84392 -2.82934,-2.34805 -4.244,-5.42532 -4.244,-9.2318 m 8.92553,-0.0219 c -1e-5,2.07096 0.41564,3.6023 1.24695,4.59402 0.84587,0.99173 1.90322,1.48759 3.17206,1.48759 1.28339,0 2.33345,-0.48857 3.15018,-1.46572 0.83128,-0.97713 1.24693,-2.54493 1.24695,-4.7034 -2e-5,-2.01261 -0.41567,-3.50748 -1.24695,-4.48464 -0.83131,-0.99171 -1.8595,-1.48757 -3.08455,-1.48759 -1.29801,2e-5 -2.36995,0.50317 -3.21582,1.50947 -0.84589,0.99174 -1.26883,2.50849 -1.26882,4.55027"
               style="font-family:'Arial Black';-inkscape-font-specification:'Arial Black,';text-align:start;writing-mode:lr-tb;text-anchor:start"
               id="path4256"
               inkscape:connector-curvature="0" />
            <path
               d="m 399.33987,-153.23911 h 8.33486 v 3.80648 c 0.80212,-1.648 1.62613,-2.77827 2.47203,-3.39083 0.86045,-0.6271 1.9178,-0.94066 3.17206,-0.94068 1.31256,2e-5 2.7491,0.40838 4.30963,1.22507 l -2.75641,6.34413 c -1.05008,-0.43751 -1.88138,-0.65627 -2.4939,-0.65629 -1.16675,2e-5 -2.07097,0.48129 -2.71266,1.44383 -0.91882,1.35635 -1.37822,3.894 -1.37821,7.61295 v 7.78797 h -8.9474 v -23.23263"
               style="font-family:'Arial Black';-inkscape-font-specification:'Arial Black,';text-align:start;writing-mode:lr-tb;text-anchor:start"
               id="path4258"
               inkscape:connector-curvature="0" />
            <path
               d="m 436.46396,-153.23911 h 8.33486 v 21.94192 l 0.0219,1.02819 c -3e-5,1.45842 -0.31359,2.84392 -0.94068,4.1565 -0.61256,1.32715 -1.43657,2.39909 -2.47202,3.21581 -1.02092,0.81671 -2.3262,1.40737 -3.91586,1.77198 -1.57511,0.3646 -3.38355,0.5469 -5.42532,0.54691 -4.66695,-1e-5 -7.87547,-0.70005 -9.62557,-2.10013 -1.73552,-1.40009 -2.60328,-3.27415 -2.60328,-5.6222 0,-0.29169 0.0146,-0.68546 0.0437,-1.18132 l 8.64114,0.98443 c 0.21875,0.80213 0.55419,1.35633 1.00631,1.6626 0.65628,0.4521 1.48028,0.67816 2.47202,0.67816 1.2834,0 2.23866,-0.34273 2.8658,-1.02818 0.64168,-0.68546 0.96254,-1.88137 0.96255,-3.58772 v -3.52208 c -0.87507,1.03548 -1.75012,1.78657 -2.62515,2.25326 -1.37093,0.72921 -2.85123,1.09382 -4.44089,1.09381 -3.10644,1e-5 -5.61492,-1.35632 -7.52544,-4.06899 -1.35634,-1.9251 -2.0345,-4.47004 -2.0345,-7.63482 0,-3.61687 0.87505,-6.37328 2.62516,-8.26924 1.75009,-1.89592 4.03981,-2.8439 6.86915,-2.84392 1.80843,2e-5 3.29602,0.30629 4.46277,0.9188 1.1813,0.61256 2.2824,1.62616 3.30332,3.04081 v -3.43458 m -8.37862,11.26629 c -2e-5,1.67719 0.3573,2.92414 1.07193,3.74085 0.71462,0.80214 1.6553,1.2032 2.82205,1.20319 1.10838,1e-5 2.03447,-0.41564 2.77828,-1.24694 0.75837,-0.84588 1.13755,-2.1147 1.13757,-3.80648 -2e-5,-1.69175 -0.39379,-2.98245 -1.18132,-3.8721 -0.78756,-0.90421 -1.75012,-1.35632 -2.88767,-1.35633 -1.13758,1e-5 -2.04909,0.41566 -2.73454,1.24695 -0.67088,0.81673 -1.00632,2.18035 -1.0063,4.09086"
               style="font-family:'Arial Black';-inkscape-font-specification:'Arial Black,';text-align:start;writing-mode:lr-tb;text-anchor:start"
               id="path4260"
               inkscape:connector-curvature="0" />
            <path
               d="m 458.38397,-145.71366 -8.50988,-0.89693 c 0.32085,-1.48757 0.78025,-2.65431 1.37821,-3.50021 0.61253,-0.86045 1.48758,-1.60424 2.62515,-2.23138 0.81671,-0.45209 1.93969,-0.80211 3.36895,-1.05006 1.42924,-0.24791 2.97517,-0.37188 4.63778,-0.3719 2.66889,2e-5 4.81276,0.15316 6.43163,0.4594 1.61882,0.29171 2.96786,0.91154 4.04711,1.85949 0.75835,0.65631 1.35631,1.58969 1.79386,2.80016 0.4375,1.19592 0.65626,2.34078 0.65629,3.43458 v 10.25998 c -3e-5,1.09382 0.0656,1.95429 0.19688,2.58141 0.14582,0.61253 0.45208,1.40008 0.91881,2.36264 h -8.35675 c -0.33545,-0.59796 -0.55422,-1.05007 -0.65629,-1.35634 -0.1021,-0.32085 -0.20419,-0.81671 -0.30626,-1.48758 -1.16676,1.12298 -2.3262,1.92511 -3.47834,2.40639 -1.5751,0.6417 -3.40542,0.96256 -5.49094,0.96256 -2.77101,0 -4.87842,-0.64171 -6.32225,-1.92512 -1.42926,-1.2834 -2.14388,-2.86579 -2.14388,-4.74715 0,-1.76468 0.51774,-3.21581 1.55322,-4.35339 1.03547,-1.13755 2.946,-1.98343 5.73159,-2.53765 3.33976,-0.67086 5.50551,-1.13755 6.49725,-1.40008 0.99171,-0.27708 2.04177,-0.6344 3.15019,-1.07194 -2e-5,-1.0938 -0.22607,-1.85947 -0.67816,-2.29701 -0.45213,-0.43751 -1.24697,-0.65627 -2.38452,-0.65629 -1.45843,2e-5 -2.55225,0.23337 -3.28144,0.70004 -0.5688,0.36463 -1.0282,1.05008 -1.37821,2.05638 m 7.72233,4.68152 c -1.22509,0.43754 -2.5012,0.82402 -3.82835,1.15945 -1.80845,0.48128 -2.95331,0.95527 -3.43458,1.42196 -0.49587,0.48128 -0.7438,1.02819 -0.74379,1.64072 -10e-6,0.70005 0.24063,1.27612 0.72191,1.72822 0.49586,0.43754 1.21777,0.6563 2.16576,0.65629 0.99171,1e-5 1.91051,-0.24063 2.75641,-0.72191 0.86045,-0.48128 1.4657,-1.06464 1.81573,-1.75011 0.36459,-0.70003 0.54689,-1.60425 0.54691,-2.71266 v -1.42196"
               style="font-family:'Arial Black';-inkscape-font-specification:'Arial Black,';text-align:start;writing-mode:lr-tb;text-anchor:start"
               id="path4262"
               inkscape:connector-curvature="0" />
            <path
               d="m 480.19468,-153.23911 h 8.29112 v 3.7846 c 1.23964,-1.5459 2.49388,-2.64701 3.76272,-3.30332 1.26881,-0.67085 2.81473,-1.00629 4.63778,-1.00631 2.4647,2e-5 4.38981,0.73652 5.77534,2.20951 1.40005,1.45843 2.10009,3.71898 2.10012,6.78165 v 14.7665 h -8.9474 v -12.77576 c -2e-5,-1.45841 -0.26983,-2.48659 -0.80943,-3.08456 -0.53963,-0.61252 -1.29801,-0.91879 -2.27513,-0.9188 -1.07925,10e-6 -1.9543,0.40837 -2.62516,1.22507 -0.67088,0.81673 -1.00632,2.28244 -1.00631,4.39713 v 11.15692 h -8.90365 v -23.23263"
               style="font-family:'Arial Black';-inkscape-font-specification:'Arial Black,';text-align:start;writing-mode:lr-tb;text-anchor:start"
               id="path4264"
               inkscape:connector-curvature="0" />
            <path
               d="m 510.44959,-162.07713 h 8.90365 v 6.05973 h -8.90365 v -6.05973 m 0,8.83802 h 8.90365 v 23.23263 h -8.90365 v -23.23263"
               style="font-family:'Arial Black';-inkscape-font-specification:'Arial Black,';text-align:start;writing-mode:lr-tb;text-anchor:start"
               id="path4266"
               inkscape:connector-curvature="0" />
            <path
               d="m 524.07851,-153.23911 h 21.54815 v 5.20656 l -11.72569,11.94446 h 12.44761 v 6.08161 h -23.14512 v -5.77535 l 11.11316,-11.37567 h -10.23811 v -6.08161"
               style="font-family:'Arial Black';-inkscape-font-specification:'Arial Black,';text-align:start;writing-mode:lr-tb;text-anchor:start"
               id="path4268"
               inkscape:connector-curvature="0" />
            <path
               d="m 575.42214,-139.41329 h -17.85106 c 0.16042,1.42926 0.5469,2.4939 1.15944,3.19394 0.86046,1.00631 1.98344,1.50947 3.36895,1.50946 0.87504,1e-5 1.70634,-0.21876 2.4939,-0.65629 0.48126,-0.27709 0.999,-0.76566 1.55322,-1.46571 l 8.77239,0.80942 c -1.34177,2.33348 -2.96062,4.01066 -4.85654,5.03155 -1.89596,1.00631 -4.61591,1.50947 -8.15985,1.50947 -3.07728,0 -5.49825,-0.43024 -7.26293,-1.29071 -1.7647,-0.87505 -3.23041,-2.25325 -4.39714,-4.13461 -1.15215,-1.89594 -1.72823,-4.12003 -1.72823,-6.67227 0,-3.63145 1.15945,-6.57017 3.47834,-8.81615 2.33346,-2.24594 5.54927,-3.36893 9.64744,-3.36895 3.32518,2e-5 5.95033,0.50318 7.87547,1.50946 1.92509,1.00633 3.3908,2.46475 4.39713,4.37526 1.00628,1.91055 1.50944,4.39715 1.50947,7.45982 v 1.00631 m -9.05679,-4.26588 c -0.17503,-1.72092 -0.64172,-2.95328 -1.40008,-3.69709 -0.74381,-0.74378 -1.72825,-1.11568 -2.9533,-1.11569 -1.41468,1e-5 -2.54496,0.56151 -3.39083,1.68447 -0.53962,0.70006 -0.88235,1.74283 -1.02818,3.12831 h 8.77239"
               style="font-family:'Arial Black';-inkscape-font-specification:'Arial Black,';text-align:start;writing-mode:lr-tb;text-anchor:start"
               id="path4270"
               inkscape:connector-curvature="0" />
            <path
               d="m 604.05826,-162.07713 v 32.07065 h -8.33486 v -3.43458 c -1.16676,1.45842 -2.2314,2.44285 -3.19394,2.9533 -1.28343,0.67087 -2.71268,1.00631 -4.28776,1.00631 -3.16478,0 -5.58575,-1.2032 -7.26293,-3.60959 -1.6626,-2.40639 -2.4939,-5.33052 -2.49389,-8.7724 -10e-6,-3.85021 0.9188,-6.79621 2.75641,-8.83802 1.85219,-2.04176 4.20024,-3.06266 7.04417,-3.06268 1.38548,2e-5 2.63972,0.23337 3.76272,0.70004 1.13755,0.46672 2.14386,1.16676 3.01893,2.10013 v -11.11316 h 8.99115 m -8.92552,20.3887 c -2e-5,-1.82301 -0.3865,-3.17934 -1.15945,-4.06899 -0.77298,-0.9042 -1.75012,-1.35631 -2.93142,-1.35633 -1.03549,2e-5 -1.90325,0.43025 -2.60328,1.2907 -0.70005,0.86049 -1.05007,2.30432 -1.05006,4.33151 -10e-6,1.89596 0.3573,3.28874 1.07194,4.17837 0.72919,0.87506 1.62612,1.31259 2.69078,1.31258 1.13755,10e-6 2.08552,-0.44481 2.84392,-1.33445 0.75836,-0.88963 1.13755,-2.34076 1.13757,-4.35339"
               style="font-family:'Arial Black';-inkscape-font-specification:'Arial Black,';text-align:start;writing-mode:lr-tb;text-anchor:start"
               id="path4272"
               inkscape:connector-curvature="0" />
            <path
               d="m 622.8281,-162.07713 h 30.12366 v 7.91922 h -10.10685 v 24.15143 h -9.90996 v -24.15143 H 622.8281 v -7.91922"
               style="font-family:'Arial Black';-inkscape-font-specification:'Arial Black,';text-align:start;writing-mode:lr-tb;text-anchor:start"
               id="path4274"
               inkscape:connector-curvature="0" />
            <path
               d="m 657.43638,-162.07713 h 26.55782 v 6.84728 h -16.62598 v 5.09717 H 682.791 v 6.54102 h -15.42278 v 6.32225 h 17.10726 v 7.26293 h -27.0391 v -32.07065"
               style="font-family:'Arial Black';-inkscape-font-specification:'Arial Black,';text-align:start;writing-mode:lr-tb;text-anchor:start"
               id="path4276"
               inkscape:connector-curvature="0" />
            <path
               d="m 689.96647,-162.07713 h 14.72274 c 2.90224,3e-5 5.243,0.3938 7.02229,1.18132 1.79383,0.78757 3.27413,1.91785 4.44089,3.39082 1.16671,1.47303 2.01259,3.18667 2.53765,5.14093 0.525,1.95431 0.78751,4.02526 0.78755,6.21287 -4e-5,3.4273 -0.39381,6.08891 -1.18132,7.98485 -0.773,1.88136 -1.85223,3.46375 -3.23769,4.74715 -1.38553,1.26883 -2.87312,2.11471 -4.46277,2.53765 -2.17307,0.58337 -4.14193,0.87506 -5.9066,0.87506 h -14.72274 v -32.07065 m 9.90996,7.26293 v 17.52291 h 2.42827 c 2.07093,1e-5 3.54394,-0.22605 4.41901,-0.67817 0.87503,-0.46668 1.56048,-1.26881 2.05637,-2.40639 0.49584,-1.15214 0.74377,-3.01162 0.74379,-5.57845 -2e-5,-3.3981 -0.55422,-5.72428 -1.6626,-6.97854 -1.10841,-1.25422 -2.94602,-1.88134 -5.51282,-1.88136 h -2.47202"
               style="font-family:'Arial Black';-inkscape-font-specification:'Arial Black,';text-align:start;writing-mode:lr-tb;text-anchor:start"
               id="path4278"
               inkscape:connector-curvature="0" />
            <path
               d="m 764.8271,-139.41329 h -17.85105 c 0.16041,1.42926 0.54689,2.4939 1.15944,3.19394 0.86046,1.00631 1.98344,1.50947 3.36895,1.50946 0.87504,1e-5 1.70634,-0.21876 2.4939,-0.65629 0.48126,-0.27709 0.999,-0.76566 1.55322,-1.46571 l 8.77239,0.80942 c -1.34177,2.33348 -2.96062,4.01066 -4.85654,5.03155 -1.89596,1.00631 -4.61591,1.50947 -8.15986,1.50947 -3.07727,0 -5.49825,-0.43024 -7.26292,-1.29071 -1.7647,-0.87505 -3.23041,-2.25325 -4.39714,-4.13461 -1.15215,-1.89594 -1.72823,-4.12003 -1.72823,-6.67227 0,-3.63145 1.15944,-6.57017 3.47833,-8.81615 2.33347,-2.24594 5.54928,-3.36893 9.64745,-3.36895 3.32518,2e-5 5.95033,0.50318 7.87547,1.50946 1.92508,1.00633 3.39079,2.46475 4.39713,4.37526 1.00628,1.91055 1.50944,4.39715 1.50946,7.45982 v 1.00631 m -9.05678,-4.26588 c -0.17503,-1.72092 -0.64172,-2.95328 -1.40008,-3.69709 -0.74382,-0.74378 -1.72825,-1.11568 -2.9533,-1.11569 -1.41468,1e-5 -2.54496,0.56151 -3.39083,1.68447 -0.53963,0.70006 -0.88235,1.74283 -1.02819,3.12831 h 8.7724"
               style="font-family:'Arial Black';-inkscape-font-specification:'Arial Black,';text-align:start;writing-mode:lr-tb;text-anchor:start"
               id="path4280"
               inkscape:connector-curvature="0" />
            <path
               d="m 765.22087,-153.23911 h 9.27555 l 4.50651,14.72275 4.65965,-14.72275 h 8.99116 l -9.86621,23.23263 h -7.89734 l -9.66932,-23.23263"
               style="font-family:'Arial Black';-inkscape-font-specification:'Arial Black,';text-align:start;writing-mode:lr-tb;text-anchor:start"
               id="path4282"
               inkscape:connector-curvature="0" />
            <path
               d="m 819.91164,-139.41329 h -17.85106 c 0.16042,1.42926 0.5469,2.4939 1.15945,3.19394 0.86045,1.00631 1.98343,1.50947 3.36895,1.50946 0.87503,1e-5 1.70633,-0.21876 2.49389,-0.65629 0.48126,-0.27709 0.999,-0.76566 1.55322,-1.46571 l 8.77239,0.80942 c -1.34177,2.33348 -2.96061,4.01066 -4.85653,5.03155 -1.89597,1.00631 -4.61592,1.50947 -8.15986,1.50947 -3.07728,0 -5.49825,-0.43024 -7.26293,-1.29071 -1.76469,-0.87505 -3.23041,-2.25325 -4.39714,-4.13461 -1.15215,-1.89594 -1.72823,-4.12003 -1.72822,-6.67227 -10e-6,-3.63145 1.15944,-6.57017 3.47833,-8.81615 2.33346,-2.24594 5.54927,-3.36893 9.64744,-3.36895 3.32518,2e-5 5.95033,0.50318 7.87547,1.50946 1.92509,1.00633 3.3908,2.46475 4.39713,4.37526 1.00629,1.91055 1.50944,4.39715 1.50947,7.45982 v 1.00631 m -9.05679,-4.26588 c -0.17503,-1.72092 -0.64172,-2.95328 -1.40008,-3.69709 -0.74381,-0.74378 -1.72824,-1.11568 -2.9533,-1.11569 -1.41468,1e-5 -2.54495,0.56151 -3.39083,1.68447 -0.53962,0.70006 -0.88235,1.74283 -1.02818,3.12831 h 8.77239"
               style="font-family:'Arial Black';-inkscape-font-specification:'Arial Black,';text-align:start;writing-mode:lr-tb;text-anchor:start"
               id="path4284"
               inkscape:connector-curvature="0" />
            <path
               d="m 824.09001,-153.23911 h 8.29111 v 3.7846 c 1.23965,-1.5459 2.49389,-2.64701 3.76273,-3.30332 1.2688,-0.67085 2.81473,-1.00629 4.63777,-1.00631 2.46471,2e-5 4.38982,0.73652 5.77534,2.20951 1.40006,1.45843 2.1001,3.71898 2.10013,6.78165 v 14.7665 h -8.94741 v -12.77576 c -2e-5,-1.45841 -0.26982,-2.48659 -0.80942,-3.08456 -0.53963,-0.61252 -1.29801,-0.91879 -2.27514,-0.9188 -1.07924,10e-6 -1.95429,0.40837 -2.62515,1.22507 -0.67089,0.81673 -1.00632,2.28244 -1.00631,4.39713 v 11.15692 h -8.90365 v -23.23263"
               style="font-family:'Arial Black';-inkscape-font-specification:'Arial Black,';text-align:start;writing-mode:lr-tb;text-anchor:start"
               id="path4286"
               inkscape:connector-curvature="0" />
            <path
               d="m 864.75803,-162.07713 v 8.83802 h 4.90029 v 6.49726 h -4.90029 v 8.24736 c -2e-5,0.99174 0.0948,1.64802 0.28439,1.96887 0.29167,0.49587 0.80211,0.7438 1.53134,0.74379 0.65627,1e-5 1.57507,-0.18959 2.75641,-0.56878 l 0.65629,6.14724 c -2.20223,0.48128 -4.2586,0.72192 -6.16911,0.72192 -2.21681,0 -3.85024,-0.2844 -4.90029,-0.85318 -1.05007,-0.56878 -1.83033,-1.42925 -2.34077,-2.5814 -0.49587,-1.16673 -0.7438,-3.04809 -0.74379,-5.64409 v -8.18173 h -3.28145 v -6.49726 h 3.28145 v -4.26588 l 8.92553,-4.57214"
               style="font-family:'Arial Black';-inkscape-font-specification:'Arial Black,';text-align:start;writing-mode:lr-tb;text-anchor:start"
               id="path4288"
               inkscape:connector-curvature="0" />
          </g>
        </g>
        <path
           d="m 54.543102,569.0122 6.55942,-0.0275 3.93296,6.19103 4.90154,-6.19103 h 5.6673 l -7.13258,11.03257 8.05256,11.99047 h -6.83728 l -4.65154,-7.14619 -4.47771,7.11493 h -7.02847 l 8.11696,-12.0476"
           style="font-style:normal;font-variant:normal;font-weight:normal;font-stretch:normal;font-size:40px;line-height:125%;font-family:'Arial Black';-inkscape-font-specification:'Arial Black,';text-align:start;letter-spacing:0px;word-spacing:0px;writing-mode:lr-tb;text-anchor:start;fill:#fd2c05;fill-opacity:1;stroke:none"
           id="path3828-0-4"
           inkscape:connector-curvature="0"
           sodipodi:nodetypes="cccccccccccc" />
        <path
           d="m 90.596029,573.00104 h 22.807941 v 5.57516 H 90.596029 v -5.57516 m 0,8.43992 h 22.807941 v 5.558 H 90.596029 v -5.558"
           style="font-style:normal;font-variant:normal;font-weight:normal;font-stretch:normal;font-size:40px;line-height:125%;font-family:'Arial Black';-inkscape-font-specification:'Arial Black,';text-align:start;letter-spacing:0px;word-spacing:0px;writing-mode:lr-tb;text-anchor:start;fill:#000000;fill-opacity:1;stroke:none"
           id="path3830-0-9"
           inkscape:connector-curvature="0" />
      </g>
    </g>
  </g>
</svg>
